<svg xmlns="http://www.w3.org/2000/svg" xmlns:xlink="http://www.w3.org/1999/xlink" width="100" zoomAndPan="magnify" viewBox="0 0 75 74.999997" height="100" preserveAspectRatio="xMidYMid meet" version="1.0"><defs><g/><clipPath id="01e9c7ae2f"><path d="M 26.15625 5.46875 L 51.65625 5.46875 L 51.65625 42.21875 L 26.15625 42.21875 Z M 26.15625 5.46875 " clip-rule="nonzero"/></clipPath></defs><g clip-path="url(#01e9c7ae2f)"><path fill="#ffffff" d="M 28.558594 42.191406 C 27.96875 42.101562 27.460938 41.851562 27.027344 41.445312 C 26.597656 41.039062 26.320312 40.546875 26.199219 39.96875 C 26.160156 39.777344 26.160156 39.375 26.160156 23.839844 C 26.160156 8.308594 26.160156 7.902344 26.199219 7.714844 C 26.4375 6.589844 27.289062 5.753906 28.4375 5.507812 C 28.617188 5.472656 29.046875 5.46875 38.90625 5.46875 C 48.769531 5.46875 49.199219 5.472656 49.378906 5.507812 C 49.9375 5.621094 50.421875 5.875 50.828125 6.273438 C 51.234375 6.671875 51.496094 7.148438 51.613281 7.703125 C 51.65625 7.882812 51.65625 8.347656 51.65625 23.839844 C 51.65625 39.335938 51.65625 39.800781 51.613281 39.980469 C 51.367188 41.09375 50.554688 41.898438 49.398438 42.171875 C 49.242188 42.210938 48.777344 42.210938 38.984375 42.214844 C 30.746094 42.21875 28.699219 42.214844 28.558594 42.191406 Z M 49.410156 41.726562 C 49.871094 41.597656 50.199219 41.410156 50.523438 41.09375 C 50.941406 40.679688 51.164062 40.210938 51.226562 39.613281 C 51.242188 39.464844 51.25 37.933594 51.25 35.066406 L 51.25 30.746094 L 48.175781 30.746094 C 46.488281 30.746094 45.105469 30.753906 45.105469 30.761719 C 45.1875 30.828125 45.273438 30.886719 45.363281 30.941406 C 45.507812 31.03125 45.765625 31.203125 45.9375 31.328125 L 46.253906 31.550781 L 46.386719 31.507812 C 46.574219 31.445312 46.769531 31.429688 46.886719 31.472656 C 47.386719 31.652344 48.4375 32.765625 48.792969 33.496094 C 48.941406 33.796875 48.992188 34.011719 49.023438 34.414062 C 49.039062 34.605469 49.058594 34.800781 49.066406 34.847656 L 49.082031 34.9375 L 49.261719 34.945312 L 49.4375 34.949219 L 49.453125 34.8125 C 49.488281 34.515625 49.585938 34.441406 49.9375 34.4375 C 50.121094 34.4375 50.171875 34.445312 50.234375 34.480469 C 50.375 34.5625 50.398438 34.636719 50.40625 34.972656 C 50.410156 35.132812 50.40625 35.421875 50.394531 35.617188 C 50.378906 35.921875 50.371094 35.976562 50.328125 36.03125 C 50.265625 36.117188 50.125 36.175781 49.96875 36.171875 L 49.84375 36.171875 L 49.828125 36.261719 C 49.800781 36.40625 49.714844 36.488281 49.566406 36.507812 C 49.457031 36.515625 49.34375 36.515625 49.234375 36.503906 L 49.003906 36.484375 L 48.992188 36.542969 C 48.972656 36.628906 48.867188 36.707031 48.746094 36.726562 C 48.691406 36.734375 48.28125 36.722656 47.839844 36.703125 C 47.394531 36.683594 46.960938 36.671875 46.875 36.679688 L 46.71875 36.695312 L 46.652344 36.894531 C 46.484375 37.371094 46.175781 37.730469 45.722656 37.96875 L 45.601562 38.03125 L 46.550781 38.042969 C 47.546875 38.054688 47.527344 38.050781 47.609375 38.148438 C 47.660156 38.210938 47.644531 38.324219 47.574219 38.390625 L 47.507812 38.457031 L 44.359375 38.449219 L 41.210938 38.445312 L 41.148438 38.398438 C 41.085938 38.351562 41.0625 38.273438 41.085938 38.179688 C 41.113281 38.066406 41.136719 38.0625 42.660156 38.046875 L 44.070312 38.035156 L 43.914062 37.949219 C 43.550781 37.757812 43.28125 37.476562 43.105469 37.109375 L 43.003906 36.902344 L 40.285156 36.917969 C 38.789062 36.925781 36.621094 36.9375 35.46875 36.945312 L 33.375 36.960938 L 33.332031 37.046875 C 33.164062 37.417969 32.820312 37.761719 32.429688 37.957031 L 32.257812 38.039062 L 33.585938 38.042969 C 34.738281 38.042969 34.925781 38.046875 34.988281 38.074219 C 35.121094 38.136719 35.148438 38.28125 35.046875 38.394531 L 34.980469 38.464844 L 32.957031 38.472656 C 31.847656 38.476562 30.464844 38.46875 29.890625 38.460938 C 28.945312 38.445312 28.835938 38.441406 28.785156 38.40625 C 28.664062 38.328125 28.679688 38.167969 28.8125 38.101562 C 28.878906 38.070312 28.953125 38.0625 29.320312 38.0625 C 29.558594 38.0625 30.007812 38.058594 30.316406 38.050781 L 30.886719 38.035156 L 30.710938 37.945312 C 30.507812 37.847656 30.328125 37.71875 30.175781 37.550781 C 29.925781 37.292969 29.761719 36.992188 29.6875 36.640625 L 29.660156 36.496094 L 29.566406 36.5 C 29.453125 36.5 29.410156 36.472656 29.1875 36.265625 L 29.019531 36.109375 L 28.792969 36.378906 C 28.554688 36.660156 28.507812 36.695312 28.394531 36.648438 C 28.304688 36.613281 28.261719 36.558594 28.214844 36.425781 L 28.179688 36.316406 L 27.890625 36.3125 C 27.636719 36.3125 27.597656 36.304688 27.542969 36.265625 C 27.429688 36.183594 27.398438 36.09375 27.410156 35.882812 C 27.421875 35.660156 27.476562 35.523438 27.578125 35.449219 C 27.628906 35.421875 27.652344 35.378906 27.644531 35.320312 C 27.648438 35.25 27.65625 35.179688 27.667969 35.113281 C 27.722656 34.824219 27.78125 34.789062 28.167969 34.800781 L 28.441406 34.808594 L 28.511719 34.632812 C 28.667969 34.253906 28.902344 33.925781 29.277344 33.5625 C 30.03125 32.835938 31.191406 32.269531 32.511719 31.980469 C 33.085938 31.855469 33.628906 31.808594 34.402344 31.816406 L 34.917969 31.824219 L 35.101562 31.476562 C 35.203125 31.289062 35.335938 31.058594 35.394531 30.964844 L 35.503906 30.800781 L 34.597656 30.792969 C 34.097656 30.789062 32.089844 30.792969 30.140625 30.800781 L 26.589844 30.816406 L 26.589844 35.246094 C 26.589844 39.597656 26.589844 39.683594 26.632812 39.894531 C 26.730469 40.359375 26.949219 40.757812 27.289062 41.09375 C 27.628906 41.433594 28.03125 41.648438 28.503906 41.742188 C 28.570312 41.753906 28.644531 41.769531 28.667969 41.773438 C 28.691406 41.777344 33.332031 41.78125 38.972656 41.78125 L 49.234375 41.777344 Z M 33.269531 39.980469 C 32.972656 39.972656 32.816406 39.960938 32.78125 39.941406 C 32.683594 39.886719 32.683594 39.714844 32.78125 39.644531 L 32.84375 39.597656 L 36.074219 39.59375 C 37.851562 39.589844 39.335938 39.59375 39.378906 39.597656 C 39.542969 39.628906 39.617188 39.808594 39.503906 39.914062 C 39.464844 39.945312 39.417969 39.96875 39.367188 39.980469 C 39.277344 40 34.03125 40 33.269531 39.980469 Z M 40.613281 39.921875 C 40.570312 39.898438 40.539062 39.867188 40.515625 39.820312 C 40.480469 39.71875 40.511719 39.644531 40.613281 39.605469 C 40.683594 39.570312 40.753906 39.566406 41.34375 39.570312 L 41.996094 39.578125 L 42.054688 39.628906 C 42.148438 39.71875 42.148438 39.804688 42.054688 39.894531 L 41.996094 39.949219 L 41.34375 39.953125 C 40.753906 39.957031 40.683594 39.957031 40.613281 39.921875 Z M 26.941406 39.914062 C 26.851562 39.902344 26.808594 39.882812 26.769531 39.839844 C 26.679688 39.734375 26.714844 39.609375 26.847656 39.550781 C 26.921875 39.519531 27.066406 39.515625 28.097656 39.519531 C 28.78125 39.523438 29.296875 39.535156 29.347656 39.546875 C 29.414062 39.558594 29.460938 39.601562 29.480469 39.667969 C 29.503906 39.734375 29.492188 39.792969 29.441406 39.84375 L 29.390625 39.902344 L 28.742188 39.917969 C 27.875 39.9375 27.089844 39.933594 26.941406 39.914062 Z M 47.574219 39.875 L 46.972656 39.859375 L 46.921875 39.800781 C 46.816406 39.679688 46.882812 39.515625 47.046875 39.492188 C 47.175781 39.472656 49.070312 39.460938 49.261719 39.476562 C 49.453125 39.496094 49.515625 39.527344 49.554688 39.625 C 49.582031 39.699219 49.535156 39.800781 49.457031 39.84375 C 49.398438 39.875 49.304688 39.882812 48.78125 39.882812 C 48.449219 39.886719 47.90625 39.878906 47.574219 39.875 Z M 39.386719 38.429688 C 39.316406 38.414062 39.273438 38.371094 39.253906 38.304688 C 39.238281 38.234375 39.253906 38.175781 39.304688 38.128906 C 39.363281 38.074219 39.363281 38.074219 39.84375 38.074219 C 40.320312 38.074219 40.324219 38.074219 40.382812 38.128906 C 40.488281 38.226562 40.441406 38.390625 40.289062 38.433594 C 40.1875 38.460938 39.484375 38.460938 39.386719 38.429688 Z M 49.695312 38.402344 C 49.636719 38.375 49.601562 38.328125 49.59375 38.265625 C 49.585938 38.199219 49.605469 38.148438 49.652344 38.105469 L 49.710938 38.050781 L 50.9375 38.050781 L 50.992188 38.105469 C 51.035156 38.140625 51.054688 38.1875 51.054688 38.242188 C 51.050781 38.300781 51.027344 38.34375 50.984375 38.378906 L 50.914062 38.433594 L 50.339844 38.433594 C 49.90625 38.433594 49.746094 38.425781 49.695312 38.402344 Z M 45.199219 37.714844 C 45.464844 37.648438 45.695312 37.519531 45.890625 37.324219 C 46.085938 37.132812 46.214844 36.902344 46.28125 36.640625 C 46.332031 36.402344 46.332031 36.164062 46.285156 35.929688 C 46.21875 35.667969 46.089844 35.441406 45.902344 35.25 C 45.710938 35.058594 45.484375 34.929688 45.222656 34.859375 C 44.976562 34.800781 44.726562 34.796875 44.476562 34.847656 C 44.285156 34.894531 44.109375 34.980469 43.949219 35.097656 C 43.789062 35.214844 43.65625 35.359375 43.554688 35.527344 C 43.453125 35.695312 43.386719 35.878906 43.359375 36.074219 C 43.332031 36.269531 43.339844 36.460938 43.390625 36.652344 C 43.460938 36.929688 43.566406 37.109375 43.785156 37.324219 C 44.082031 37.621094 44.398438 37.753906 44.832031 37.757812 C 44.957031 37.757812 45.078125 37.746094 45.199219 37.714844 Z M 44.578125 37.441406 C 44.34375 37.390625 44.167969 37.292969 43.980469 37.105469 C 43.582031 36.710938 43.503906 36.160156 43.777344 35.671875 C 44.171875 34.964844 45.171875 34.851562 45.726562 35.445312 C 45.90625 35.640625 46.011719 35.867188 46.042969 36.128906 C 46.074219 36.386719 46.023438 36.632812 45.890625 36.859375 C 45.757812 37.089844 45.570312 37.257812 45.328125 37.363281 C 45.085938 37.46875 44.835938 37.496094 44.578125 37.441406 Z M 45.175781 36.972656 C 45.398438 36.867188 45.539062 36.699219 45.601562 36.464844 C 45.703125 36.113281 45.519531 35.71875 45.179688 35.558594 C 44.984375 35.464844 44.671875 35.46875 44.480469 35.5625 C 44.328125 35.648438 44.207031 35.769531 44.121094 35.925781 C 44.066406 36.035156 44.058594 36.074219 44.058594 36.257812 C 44.058594 36.445312 44.066406 36.476562 44.132812 36.609375 C 44.207031 36.761719 44.320312 36.878906 44.472656 36.957031 C 44.625 37.035156 44.789062 37.0625 44.957031 37.035156 C 45.035156 37.023438 45.105469 37.003906 45.175781 36.972656 Z M 44.6875 36.363281 C 44.640625 36.324219 44.617188 36.273438 44.621094 36.210938 C 44.625 36.148438 44.652344 36.101562 44.703125 36.066406 C 44.757812 36.03125 44.8125 36.023438 44.871094 36.046875 C 44.933594 36.066406 44.972656 36.109375 44.988281 36.167969 C 45.007812 36.226562 44.996094 36.28125 44.960938 36.332031 C 44.921875 36.382812 44.871094 36.40625 44.808594 36.40625 C 44.761719 36.410156 44.722656 36.394531 44.6875 36.363281 Z M 31.9375 37.691406 C 32.039062 37.660156 32.140625 37.621094 32.234375 37.574219 C 32.621094 37.390625 32.878906 37.097656 33.007812 36.699219 C 33.066406 36.53125 33.074219 36.472656 33.074219 36.246094 C 33.074219 35.964844 33.03125 35.777344 32.917969 35.558594 C 32.78125 35.300781 32.585938 35.097656 32.328125 34.953125 C 32.070312 34.808594 31.796875 34.742188 31.5 34.757812 C 31.132812 34.773438 30.816406 34.90625 30.550781 35.160156 C 30.402344 35.296875 30.285156 35.453125 30.203125 35.636719 C 30.121094 35.820312 30.074219 36.011719 30.070312 36.210938 C 30.066406 36.410156 30.105469 36.605469 30.179688 36.789062 C 30.253906 36.976562 30.363281 37.140625 30.507812 37.28125 C 30.816406 37.601562 31.195312 37.75 31.640625 37.722656 C 31.742188 37.71875 31.839844 37.707031 31.9375 37.691406 Z M 31.285156 37.464844 C 31.058594 37.410156 30.863281 37.296875 30.703125 37.128906 C 30.429688 36.859375 30.316406 36.566406 30.335938 36.191406 C 30.386719 35.3125 31.300781 34.761719 32.105469 35.121094 C 32.46875 35.285156 32.703125 35.558594 32.808594 35.945312 C 32.851562 36.152344 32.851562 36.363281 32.808594 36.570312 C 32.679688 37.039062 32.375 37.335938 31.902344 37.460938 C 31.695312 37.503906 31.492188 37.503906 31.285156 37.464844 Z M 31.789062 37.054688 C 32.050781 36.988281 32.242188 36.832031 32.351562 36.585938 C 32.433594 36.417969 32.4375 36.132812 32.359375 35.945312 C 32.179688 35.5 31.628906 35.308594 31.191406 35.539062 C 31.023438 35.625 30.902344 35.753906 30.832031 35.925781 C 30.769531 36.054688 30.761719 36.09375 30.765625 36.253906 C 30.765625 36.628906 30.984375 36.925781 31.332031 37.039062 C 31.484375 37.089844 31.632812 37.09375 31.789062 37.054688 Z M 31.480469 36.378906 C 31.394531 36.292969 31.398438 36.207031 31.492188 36.125 C 31.617188 36.027344 31.785156 36.101562 31.785156 36.257812 C 31.785156 36.335938 31.746094 36.390625 31.671875 36.417969 C 31.601562 36.449219 31.535156 36.433594 31.480469 36.378906 Z M 33.789062 36.507812 C 33.789062 36.433594 33.667969 35.855469 33.621094 35.710938 C 33.472656 35.238281 33.015625 34.722656 32.496094 34.433594 C 32.089844 34.207031 31.378906 34.167969 30.851562 34.339844 C 30.445312 34.476562 29.972656 34.886719 29.453125 35.554688 L 29.265625 35.804688 L 29.4375 35.964844 C 29.496094 36.023438 29.558594 36.078125 29.628906 36.125 C 29.640625 36.125 29.648438 36.105469 29.648438 36.082031 C 29.648438 35.988281 29.722656 35.695312 29.785156 35.53125 C 30.082031 34.765625 30.933594 34.246094 31.746094 34.335938 C 31.988281 34.355469 32.21875 34.421875 32.433594 34.535156 C 32.828125 34.71875 33.117188 35.007812 33.304688 35.394531 C 33.449219 35.671875 33.515625 35.960938 33.507812 36.273438 L 33.503906 36.539062 L 33.644531 36.539062 C 33.75 36.539062 33.789062 36.53125 33.789062 36.507812 Z M 39.867188 36.476562 C 39.875 36.46875 39.886719 35.699219 39.890625 34.765625 L 39.898438 33.066406 L 38.621094 33.074219 C 37.917969 33.074219 37.078125 33.085938 36.75 33.097656 C 36.117188 33.121094 35.21875 33.179688 35.199219 33.199219 C 35.191406 33.207031 35.1875 33.957031 35.1875 34.867188 L 35.1875 36.523438 L 37.519531 36.507812 C 38.804688 36.5 39.859375 36.484375 39.867188 36.476562 Z M 35.660156 36.28125 C 35.605469 36.230469 35.585938 36.171875 35.601562 36.097656 C 35.617188 36.023438 35.660156 35.976562 35.730469 35.953125 C 35.796875 35.933594 38.121094 35.886719 39.085938 35.886719 C 39.449219 35.886719 39.46875 35.886719 39.523438 35.933594 C 39.5625 35.96875 39.585938 36.011719 39.59375 36.0625 C 39.605469 36.128906 39.59375 36.152344 39.539062 36.214844 L 39.472656 36.289062 L 38.921875 36.300781 C 38.621094 36.308594 37.777344 36.324219 37.050781 36.332031 L 35.726562 36.347656 Z M 38.695312 33.695312 C 38.585938 33.636719 38.582031 33.46875 38.683594 33.394531 C 38.742188 33.351562 38.773438 33.347656 39.082031 33.347656 C 39.394531 33.347656 39.425781 33.351562 39.484375 33.394531 C 39.527344 33.425781 39.554688 33.46875 39.554688 33.523438 C 39.558594 33.578125 39.542969 33.625 39.5 33.664062 C 39.445312 33.714844 39.433594 33.71875 39.097656 33.722656 C 38.824219 33.726562 38.742188 33.722656 38.695312 33.695312 Z M 41.453125 36.472656 L 41.910156 36.472656 L 41.875 36.382812 C 41.847656 36.308594 41.839844 36.214844 41.839844 35.972656 C 41.839844 35.480469 41.929688 35.105469 42.144531 34.6875 C 42.457031 34.085938 42.886719 33.601562 43.390625 33.277344 C 43.457031 33.238281 43.519531 33.195312 43.578125 33.148438 C 43.578125 33.144531 43.335938 33.128906 43.046875 33.105469 C 42.675781 33.082031 42.195312 33.070312 41.429688 33.066406 L 40.339844 33.066406 L 40.320312 34.75 C 40.3125 35.679688 40.308594 36.453125 40.316406 36.46875 C 40.328125 36.496094 40.378906 36.5 40.660156 36.488281 C 40.84375 36.480469 41.203125 36.472656 41.453125 36.472656 Z M 40.910156 36.273438 C 40.757812 36.191406 40.789062 35.980469 40.960938 35.933594 C 41.0625 35.90625 41.324219 35.914062 41.402344 35.949219 C 41.542969 36.007812 41.570312 36.167969 41.457031 36.253906 C 41.410156 36.292969 41.367188 36.296875 41.179688 36.296875 C 41.089844 36.300781 41 36.292969 40.910156 36.273438 Z M 42.910156 36.335938 C 42.886719 36.007812 43.019531 35.558594 43.234375 35.238281 C 43.457031 34.902344 43.757812 34.664062 44.136719 34.519531 C 44.511719 34.375 44.898438 34.347656 45.289062 34.445312 C 45.683594 34.539062 46.011719 34.738281 46.277344 35.039062 C 46.542969 35.339844 46.699219 35.691406 46.742188 36.089844 L 46.765625 36.304688 L 46.898438 36.289062 C 46.96875 36.285156 47.09375 36.277344 47.175781 36.277344 L 47.328125 36.277344 L 47.113281 36.066406 C 46.953125 35.910156 46.816406 35.738281 46.703125 35.546875 C 46.277344 34.878906 46.074219 34.675781 45.644531 34.476562 C 45.332031 34.335938 45.183594 34.304688 44.765625 34.308594 C 44.390625 34.308594 44.390625 34.308594 44.179688 34.386719 C 43.769531 34.535156 43.523438 34.71875 43.269531 35.050781 C 42.980469 35.433594 42.828125 35.832031 42.765625 36.402344 L 42.753906 36.496094 L 42.917969 36.496094 Z M 34.445312 36.386719 C 34.660156 36.386719 34.65625 36.386719 34.625 36.132812 C 34.457031 34.761719 33.628906 33.769531 32.445312 33.519531 C 32.222656 33.472656 31.726562 33.46875 31.476562 33.511719 C 30.554688 33.664062 29.671875 34.308594 29.128906 35.222656 C 29.085938 35.292969 29.046875 35.363281 29.011719 35.4375 C 29.082031 35.359375 29.148438 35.277344 29.210938 35.191406 C 29.566406 34.71875 30.015625 34.300781 30.390625 34.085938 C 30.761719 33.875 31.316406 33.769531 31.785156 33.8125 C 32.445312 33.875 32.925781 34.113281 33.402344 34.601562 C 33.835938 35.050781 34.035156 35.449219 34.152344 36.101562 C 34.195312 36.359375 34.21875 36.417969 34.265625 36.398438 C 34.324219 36.390625 34.382812 36.382812 34.445312 36.386719 Z M 42.351562 36.289062 C 42.351562 36.15625 42.425781 35.808594 42.488281 35.625 C 42.640625 35.171875 42.894531 34.78125 43.242188 34.453125 C 43.648438 34.066406 44.023438 33.90625 44.578125 33.871094 C 45.199219 33.832031 45.761719 33.992188 46.261719 34.355469 C 46.511719 34.535156 46.628906 34.679688 46.992188 35.214844 C 47.351562 35.75 47.484375 35.902344 47.714844 36.058594 C 47.941406 36.207031 48.09375 36.261719 48.300781 36.261719 C 48.570312 36.261719 48.671875 36.179688 48.671875 35.96875 C 48.671875 35.5 48.140625 34.707031 47.460938 34.167969 C 46.90625 33.726562 46.195312 33.398438 45.574219 33.304688 C 45.230469 33.261719 44.886719 33.269531 44.542969 33.324219 C 44.171875 33.398438 43.832031 33.539062 43.519531 33.753906 C 43.304688 33.902344 42.832031 34.375 42.699219 34.570312 C 42.558594 34.792969 42.445312 35.023438 42.355469 35.269531 C 42.242188 35.605469 42.195312 36.179688 42.273438 36.316406 C 42.316406 36.402344 42.351562 36.390625 42.351562 36.292969 Z M 48.09375 36.082031 C 48.007812 36.042969 47.925781 35.996094 47.851562 35.941406 C 47.667969 35.816406 47.359375 35.527344 47.316406 35.449219 C 47.238281 35.300781 47.316406 35.144531 47.46875 35.144531 C 47.539062 35.144531 47.578125 35.175781 47.828125 35.40625 C 48 35.566406 48.152344 35.691406 48.222656 35.722656 C 48.371094 35.796875 48.417969 35.847656 48.417969 35.941406 C 48.417969 36.089844 48.273438 36.152344 48.09375 36.082031 Z M 49.425781 35.84375 C 49.4375 35.714844 49.441406 35.554688 49.4375 35.484375 L 49.433594 35.351562 L 49.25 35.34375 C 49.074219 35.339844 49.066406 35.339844 49.078125 35.382812 C 49.117188 35.539062 49.136719 35.703125 49.132812 35.867188 C 49.132812 35.933594 49.136719 36 49.152344 36.066406 C 49.195312 36.078125 49.242188 36.082031 49.289062 36.078125 L 49.410156 36.070312 Z M 28.199219 35.871094 C 28.214844 35.851562 28.21875 35.832031 28.21875 35.808594 C 28.21875 35.757812 28.210938 35.753906 28.054688 35.753906 C 27.847656 35.753906 27.820312 35.765625 27.820312 35.847656 L 27.820312 35.914062 L 28.003906 35.898438 C 28.070312 35.894531 28.136719 35.882812 28.199219 35.871094 Z M 49.945312 35.75 C 49.957031 35.734375 49.976562 35.527344 49.984375 35.28125 L 50 34.835938 L 49.851562 34.851562 L 49.851562 35.3125 C 49.851562 35.726562 49.855469 35.777344 49.886719 35.777344 C 49.910156 35.773438 49.929688 35.765625 49.945312 35.75 Z M 28.285156 35.308594 C 28.324219 35.199219 28.316406 35.1875 28.183594 35.1875 C 28.070312 35.1875 28.0625 35.191406 28.0625 35.242188 C 28.0625 35.269531 28.058594 35.300781 28.050781 35.328125 C 28.039062 35.355469 28.054688 35.363281 28.148438 35.363281 C 28.25 35.363281 28.265625 35.355469 28.285156 35.304688 Z M 34.777344 34.078125 L 34.78125 33.207031 L 34.726562 33.207031 C 34.695312 33.207031 34.449219 33.222656 34.179688 33.242188 C 33.910156 33.261719 33.570312 33.28125 33.425781 33.289062 L 33.160156 33.304688 L 33.304688 33.378906 C 33.90625 33.699219 34.359375 34.164062 34.660156 34.773438 C 34.6875 34.832031 34.71875 34.890625 34.757812 34.949219 C 34.765625 34.949219 34.773438 34.558594 34.777344 34.078125 Z M 29.125 34.484375 C 29.371094 34.191406 29.648438 33.933594 29.957031 33.703125 C 30.261719 33.488281 30.902344 33.175781 31.179688 33.109375 C 31.691406 32.984375 32.132812 32.933594 33.347656 32.867188 C 33.691406 32.847656 34.148438 32.820312 34.359375 32.808594 L 34.742188 32.78125 L 34.761719 32.71875 C 34.804688 32.550781 34.847656 32.242188 34.828125 32.222656 C 34.785156 32.179688 33.539062 32.238281 33.109375 32.300781 C 32.636719 32.375 32.171875 32.488281 31.71875 32.636719 C 30.640625 33 29.734375 33.582031 29.214844 34.257812 C 29.128906 34.367188 28.953125 34.664062 28.972656 34.664062 C 29.027344 34.609375 29.078125 34.550781 29.125 34.484375 Z M 48.550781 34.039062 C 48.5 33.832031 48.308594 33.457031 48.113281 33.195312 C 47.84375 32.847656 47.550781 32.523438 47.238281 32.214844 C 46.964844 31.957031 46.773438 31.828125 46.679688 31.839844 C 46.628906 31.84375 46.652344 31.871094 46.9375 32.140625 C 47.351562 32.523438 47.710938 32.902344 47.917969 33.175781 C 48.09375 33.402344 48.382812 33.820312 48.484375 33.996094 C 48.554688 34.113281 48.570312 34.125 48.550781 34.039062 Z M 47.976562 33.984375 C 47.597656 33.394531 47 32.730469 46.328125 32.164062 C 45.601562 31.566406 44.816406 31.054688 43.972656 30.632812 C 42.960938 30.148438 41.824219 29.847656 40.601562 29.746094 C 40.265625 29.714844 39.15625 29.714844 38.753906 29.742188 C 37.738281 29.816406 36.96875 30.015625 36.503906 30.324219 C 36.1875 30.539062 35.824219 31.023438 35.445312 31.734375 L 35.25 32.105469 L 35.222656 32.347656 C 35.210938 32.476562 35.191406 32.625 35.183594 32.675781 L 35.171875 32.765625 L 35.253906 32.757812 C 36.335938 32.636719 42.390625 32.589844 43.1875 32.695312 C 43.238281 32.703125 43.390625 32.707031 43.527344 32.707031 C 43.910156 32.707031 45.414062 32.835938 45.695312 32.890625 C 45.734375 32.898438 45.765625 32.898438 45.765625 32.890625 C 45.765625 32.859375 45.464844 32.492188 45.28125 32.304688 C 45.179688 32.199219 45 32.035156 44.886719 31.9375 C 44.160156 31.335938 42.898438 30.726562 41.953125 30.519531 C 41.230469 30.359375 40.296875 30.246094 39.699219 30.246094 C 39.382812 30.242188 39.265625 30.222656 39.21875 30.152344 C 39.15625 30.066406 39.164062 29.988281 39.238281 29.914062 L 39.296875 29.863281 L 39.882812 29.867188 C 41.527344 29.871094 42.847656 30.207031 44.179688 30.957031 C 44.507812 31.144531 44.820312 31.351562 45.117188 31.578125 C 45.40625 31.8125 45.910156 32.339844 46.226562 32.746094 L 46.523438 33.121094 L 46.855469 33.289062 C 47.296875 33.511719 47.78125 33.839844 47.957031 34.03125 C 48.027344 34.109375 48.039062 34.082031 47.976562 33.984375 Z M 35.757812 32.492188 C 35.644531 32.464844 35.589844 32.394531 35.59375 32.277344 C 35.597656 32.011719 36.195312 31.207031 36.582031 30.957031 C 36.769531 30.828125 36.976562 30.746094 37.199219 30.707031 C 37.628906 30.617188 38.585938 30.527344 39.226562 30.519531 C 39.671875 30.515625 39.738281 30.53125 39.875 30.652344 C 40 30.773438 40.019531 30.847656 40.015625 31.269531 C 40.015625 31.476562 40.007812 31.796875 40 31.980469 C 39.988281 32.28125 39.980469 32.316406 39.9375 32.359375 C 39.878906 32.421875 40.019531 32.414062 38.039062 32.453125 C 37.136719 32.472656 36.265625 32.492188 36.101562 32.496094 C 35.988281 32.503906 35.871094 32.5 35.757812 32.492188 Z M 36.722656 32.058594 L 36.894531 32.046875 L 36.894531 31.65625 C 36.894531 31.441406 36.886719 31.269531 36.875 31.269531 C 36.777344 31.269531 36.3125 31.734375 36.136719 32.011719 L 36.097656 32.074219 L 36.324219 32.074219 C 36.453125 32.074219 36.632812 32.066406 36.722656 32.058594 Z M 38.769531 32.015625 C 39.203125 32.007812 39.5625 31.996094 39.566406 31.988281 C 39.570312 31.980469 39.582031 31.753906 39.589844 31.484375 C 39.605469 31.042969 39.605469 30.992188 39.570312 30.964844 C 39.5 30.910156 38.300781 30.96875 37.628906 31.0625 C 37.496094 31.082031 37.371094 31.101562 37.351562 31.105469 C 37.316406 31.117188 37.3125 31.160156 37.3125 31.570312 C 37.3125 31.820312 37.320312 32.03125 37.328125 32.039062 C 37.335938 32.050781 37.488281 32.050781 37.664062 32.042969 C 37.839844 32.035156 38.335938 32.023438 38.769531 32.015625 Z M 42.035156 32.410156 C 40.457031 32.378906 40.476562 32.378906 40.402344 32.230469 C 40.363281 32.15625 40.359375 32.085938 40.359375 31.460938 L 40.359375 30.769531 L 40.421875 30.707031 L 40.484375 30.648438 L 40.90625 30.652344 C 41.546875 30.664062 42.214844 30.742188 42.585938 30.855469 C 43.109375 31.015625 43.617188 31.378906 43.808594 31.734375 C 43.949219 31.996094 43.90625 32.3125 43.71875 32.40625 C 43.664062 32.429688 43.605469 32.441406 43.542969 32.441406 C 43.488281 32.4375 42.808594 32.425781 42.035156 32.410156 Z M 43.5 31.992188 C 43.5 31.941406 43.316406 31.726562 43.199219 31.632812 C 43.058594 31.519531 42.707031 31.339844 42.488281 31.269531 C 42.179688 31.167969 41.324219 31.0625 40.945312 31.074219 L 40.757812 31.082031 L 40.75 31.523438 L 40.746094 31.964844 L 41.027344 31.96875 C 41.179688 31.96875 41.621094 31.976562 42 31.984375 C 43.085938 32.007812 43.5 32.011719 43.5 31.992188 Z M 36.84375 30.542969 C 36.769531 30.480469 36.75 30.410156 36.792969 30.324219 C 36.839844 30.207031 37.066406 30.128906 37.683594 30.019531 C 38.023438 29.957031 38.476562 29.914062 38.574219 29.933594 C 38.640625 29.945312 38.742188 30.054688 38.742188 30.113281 C 38.738281 30.199219 38.699219 30.261719 38.625 30.304688 C 38.582031 30.324219 38.453125 30.34375 38.269531 30.355469 C 37.910156 30.382812 37.554688 30.433594 37.203125 30.519531 C 36.972656 30.578125 36.898438 30.582031 36.84375 30.542969 Z M 34.488281 30.363281 L 35.855469 30.347656 L 36.050781 30.164062 C 36.160156 30.054688 36.28125 29.960938 36.414062 29.878906 C 36.507812 29.824219 36.585938 29.777344 36.585938 29.777344 C 36.585938 29.773438 36.402344 29.777344 36.179688 29.78125 C 35.828125 29.792969 35.769531 29.789062 35.695312 29.753906 C 35.605469 29.714844 35.558594 29.644531 35.550781 29.546875 C 35.550781 29.511719 35.539062 29.503906 35.511719 29.515625 C 35.402344 29.558594 35.042969 29.613281 34.800781 29.625 C 34.464844 29.640625 34.277344 29.609375 34.035156 29.488281 C 33.8125 29.378906 33.664062 29.230469 33.429688 28.878906 C 33.234375 28.589844 33.207031 28.566406 33.078125 28.566406 C 33.03125 28.566406 33.007812 28.585938 32.972656 28.660156 C 32.871094 28.847656 32.742188 29.015625 32.582031 29.15625 C 32.332031 29.40625 32.035156 29.585938 31.695312 29.691406 C 31.527344 29.746094 31.480469 29.753906 31.191406 29.753906 C 30.898438 29.753906 30.855469 29.746094 30.695312 29.691406 C 30.472656 29.625 30.285156 29.507812 30.132812 29.335938 L 29.984375 29.175781 L 29.855469 29.300781 C 29.777344 29.375 29.695312 29.441406 29.605469 29.5 L 29.484375 29.578125 L 29.578125 29.597656 C 29.667969 29.613281 29.757812 29.609375 29.847656 29.59375 C 30.054688 29.558594 30.136719 29.582031 30.1875 29.679688 C 30.238281 29.773438 30.226562 29.828125 30.148438 29.90625 C 29.945312 30.105469 29.265625 30.046875 28.929688 29.800781 C 28.824219 29.714844 28.730469 29.621094 28.648438 29.519531 C 28.597656 29.449219 28.542969 29.386719 28.480469 29.328125 C 28.441406 29.359375 28.410156 29.394531 28.386719 29.433594 C 28.25 29.621094 27.972656 29.863281 27.808594 29.941406 C 27.550781 30.066406 27.371094 30.027344 27.371094 29.84375 C 27.371094 29.746094 27.40625 29.707031 27.578125 29.628906 C 27.757812 29.546875 27.953125 29.355469 28.144531 29.078125 C 28.292969 28.859375 28.359375 28.8125 28.496094 28.835938 C 28.613281 28.855469 28.714844 28.9375 28.890625 29.144531 C 29.066406 29.359375 29.058594 29.355469 29.292969 29.226562 C 29.492188 29.117188 29.644531 28.960938 29.75 28.761719 C 29.8125 28.636719 29.84375 28.601562 29.90625 28.574219 C 29.957031 28.546875 30.011719 28.542969 30.066406 28.570312 C 30.128906 28.59375 30.164062 28.636719 30.25 28.773438 C 30.410156 29.042969 30.507812 29.140625 30.691406 29.230469 C 31.085938 29.421875 31.558594 29.371094 32 29.082031 C 32.191406 28.960938 32.476562 28.6875 32.550781 28.550781 L 32.597656 28.464844 L 32.296875 28.394531 C 31.980469 28.324219 31.671875 28.226562 31.375 28.097656 L 31.207031 28.023438 L 31.050781 28.054688 C 30.832031 28.105469 30.320312 28.121094 30.082031 28.089844 C 29.488281 28.011719 28.9375 27.765625 28.625 27.433594 C 28.5625 27.367188 28.492188 27.289062 28.46875 27.253906 L 28.425781 27.191406 L 28.324219 27.34375 C 27.953125 27.890625 27.398438 28.195312 26.777344 28.195312 L 26.589844 28.195312 L 26.589844 28.523438 L 26.652344 28.523438 C 26.757812 28.523438 27.074219 28.460938 27.25 28.402344 C 27.554688 28.304688 27.808594 28.160156 28.117188 27.902344 C 28.253906 27.789062 28.304688 27.761719 28.363281 27.761719 C 28.429688 27.761719 28.480469 27.789062 28.515625 27.84375 C 28.550781 27.902344 28.550781 27.960938 28.519531 28.015625 C 28.46875 28.109375 28.207031 28.34375 27.992188 28.488281 C 27.601562 28.746094 27.265625 28.863281 26.660156 28.949219 L 26.589844 28.960938 L 26.589844 30.386719 L 29.851562 30.378906 C 31.648438 30.378906 33.734375 30.371094 34.488281 30.363281 Z M 32.757812 29.578125 C 32.699219 29.539062 32.675781 29.425781 32.707031 29.34375 C 32.742188 29.253906 32.925781 29.074219 32.996094 29.058594 C 33.035156 29.050781 33.074219 29.054688 33.109375 29.070312 C 33.246094 29.140625 33.25 29.257812 33.128906 29.410156 C 32.972656 29.609375 32.867188 29.65625 32.757812 29.578125 Z M 47.769531 30.328125 C 47.769531 30.324219 47.667969 30.21875 47.542969 30.089844 C 47.183594 29.726562 46.9375 29.371094 46.792969 29.015625 C 46.757812 28.929688 46.722656 28.84375 46.710938 28.816406 C 46.699219 28.792969 46.683594 28.746094 46.667969 28.714844 C 46.652344 28.667969 46.636719 28.65625 46.609375 28.664062 C 46.574219 28.671875 45.382812 28.773438 44.792969 28.820312 L 44.601562 28.832031 L 44.613281 28.902344 C 44.664062 29.273438 44.664062 29.386719 44.601562 29.5 C 44.546875 29.601562 44.503906 29.609375 43.664062 29.621094 C 42.898438 29.636719 42.535156 29.652344 42.628906 29.671875 C 42.875 29.726562 43.707031 30.035156 44.09375 30.21875 L 44.324219 30.328125 L 46.046875 30.328125 C 46.996094 30.332031 47.769531 30.328125 47.769531 30.328125 Z M 51.222656 30.296875 C 51.242188 30.292969 51.25 29.804688 51.25 27.96875 L 51.25 25.648438 L 51.195312 25.566406 C 51.148438 25.484375 51.113281 25.398438 51.085938 25.3125 C 50.953125 24.910156 50.746094 24.578125 50.417969 24.230469 C 50.167969 23.96875 49.617188 23.558594 49.648438 23.660156 C 49.796875 24.121094 49.828125 24.324219 49.808594 24.636719 C 49.773438 25.1875 49.601562 25.6875 49.285156 26.144531 C 49.042969 26.496094 48.605469 26.855469 48.167969 27.0625 L 47.980469 27.152344 L 48.433594 27.152344 C 48.683594 27.152344 48.96875 27.160156 49.0625 27.175781 C 49.273438 27.203125 49.457031 27.285156 49.523438 27.390625 C 49.585938 27.480469 49.589844 27.648438 49.535156 27.773438 C 49.421875 28.015625 48.9375 28.28125 48.398438 28.398438 C 48.144531 28.453125 48.15625 28.441406 48.132812 28.640625 L 48.117188 28.769531 L 48.257812 28.753906 C 48.425781 28.738281 48.90625 28.613281 49.15625 28.523438 C 49.753906 28.308594 50.222656 27.90625 50.390625 27.460938 C 50.589844 26.960938 50.664062 26.445312 50.609375 25.914062 C 50.582031 25.570312 50.585938 25.554688 50.625 25.5 C 50.707031 25.390625 50.875 25.414062 50.945312 25.546875 C 51.015625 25.675781 51.050781 26.382812 51.003906 26.773438 C 50.957031 27.210938 50.765625 27.742188 50.558594 28.03125 C 50.285156 28.40625 49.765625 28.769531 49.246094 28.945312 C 48.9375 29.046875 48.621094 29.121094 48.304688 29.175781 C 48.234375 29.183594 48.167969 29.191406 48.101562 29.210938 C 48.0625 29.234375 48.144531 29.679688 48.234375 29.925781 C 48.300781 30.105469 48.316406 30.230469 48.277344 30.253906 C 48.261719 30.265625 48.253906 30.277344 48.253906 30.296875 C 48.253906 30.316406 48.570312 30.320312 49.722656 30.316406 C 50.53125 30.308594 51.207031 30.304688 51.222656 30.296875 Z M 47.738281 29.640625 C 47.683594 29.460938 47.664062 29.121094 47.691406 28.769531 L 47.707031 28.546875 L 47.644531 28.546875 C 47.570312 28.546875 47.082031 28.609375 47.074219 28.617188 C 47.058594 28.632812 47.144531 28.855469 47.214844 28.992188 C 47.332031 29.199219 47.46875 29.390625 47.625 29.574219 C 47.71875 29.679688 47.757812 29.703125 47.738281 29.640625 Z M 37.003906 29.339844 C 37.480469 29.332031 38.140625 29.316406 38.46875 29.308594 C 38.792969 29.296875 39.414062 29.28125 39.84375 29.273438 C 41.042969 29.257812 44.167969 29.199219 44.195312 29.1875 C 44.207031 29.183594 44.210938 29.140625 44.199219 29.054688 C 44.191406 28.984375 44.183594 28.910156 44.183594 28.886719 C 44.179688 28.851562 44.167969 28.847656 44.03125 28.859375 C 43.949219 28.867188 43.613281 28.882812 43.277344 28.894531 L 42.671875 28.921875 L 42.609375 28.996094 C 42.476562 29.15625 42.316406 29.164062 42.175781 29.023438 L 42.097656 28.941406 L 41.382812 28.960938 C 40.992188 28.972656 40.632812 28.980469 40.585938 28.980469 C 40.511719 28.980469 40.503906 28.988281 40.464844 29.074219 C 40.414062 29.191406 40.324219 29.246094 40.195312 29.242188 C 40.066406 29.230469 39.96875 29.167969 39.898438 29.0625 L 39.859375 28.988281 L 39.59375 28.972656 C 39.449219 28.964844 39.125 28.960938 38.871094 28.960938 L 38.414062 28.960938 L 38.339844 29.035156 C 38.210938 29.179688 38.027344 29.171875 37.863281 29.019531 L 37.785156 28.941406 L 36.957031 28.917969 C 36.503906 28.902344 36.089844 28.886719 36.039062 28.878906 L 35.945312 28.867188 L 35.945312 29.0625 C 35.945312 29.148438 35.949219 29.234375 35.96875 29.316406 C 35.988281 29.367188 36 29.375 36.0625 29.363281 C 36.101562 29.359375 36.523438 29.347656 37.003906 29.339844 Z M 34.90625 29.199219 C 35.023438 29.183594 35.140625 29.167969 35.257812 29.140625 C 35.332031 29.125 35.417969 29.105469 35.453125 29.101562 C 35.515625 29.097656 35.515625 29.089844 35.523438 28.972656 L 35.53125 28.851562 L 35.457031 28.839844 C 35.417969 28.835938 35.1875 28.8125 34.945312 28.796875 C 34.449219 28.757812 33.890625 28.703125 33.8125 28.6875 C 33.753906 28.671875 33.757812 28.679688 33.890625 28.855469 C 33.980469 28.980469 34.09375 29.074219 34.238281 29.136719 C 34.425781 29.21875 34.585938 29.230469 34.90625 29.199219 Z M 39.742188 28.277344 C 39.75 28.132812 39.757812 27.992188 39.761719 27.96875 C 39.765625 27.921875 39.789062 27.921875 38.640625 27.949219 L 38.109375 27.964844 L 38.082031 28.054688 C 38.066406 28.144531 38.058594 28.234375 38.066406 28.328125 L 38.070312 28.511719 L 38.300781 28.523438 C 38.429688 28.53125 38.800781 28.539062 39.128906 28.542969 L 39.726562 28.546875 Z M 41.664062 28.53125 L 41.976562 28.515625 L 41.972656 28.265625 C 41.972656 28.15625 41.976562 28.046875 41.988281 27.9375 L 42.007812 27.867188 L 41.316406 27.882812 C 40.941406 27.890625 40.535156 27.902344 40.417969 27.910156 L 40.207031 27.925781 L 40.183594 28.042969 C 40.164062 28.148438 40.15625 28.25 40.152344 28.355469 L 40.152344 28.546875 L 40.753906 28.546875 C 41.082031 28.546875 41.492188 28.539062 41.664062 28.53125 Z M 37.648438 28.234375 L 37.652344 27.957031 L 37.15625 27.957031 C 36.625 27.957031 35.777344 27.929688 35.273438 27.890625 C 34.8125 27.859375 33.671875 27.742188 33.445312 27.707031 C 33.339844 27.691406 33.125 27.65625 32.972656 27.632812 C 32.820312 27.609375 32.523438 27.5625 32.3125 27.53125 C 32.101562 27.503906 31.757812 27.449219 31.554688 27.414062 C 31.074219 27.332031 30.949219 27.320312 30.949219 27.34375 C 30.949219 27.417969 31.320312 27.628906 31.730469 27.792969 C 32.238281 27.992188 33.59375 28.242188 34.636719 28.328125 C 34.792969 28.339844 35.03125 28.367188 35.164062 28.382812 C 35.609375 28.441406 37.15625 28.523438 37.59375 28.515625 C 37.640625 28.511719 37.640625 28.507812 37.648438 28.234375 Z M 43.128906 28.480469 C 45.386719 28.390625 47.414062 28.195312 48.328125 27.980469 C 48.570312 27.929688 48.796875 27.839844 49.007812 27.714844 L 49.144531 27.625 L 49.082031 27.605469 C 48.988281 27.589844 48.898438 27.578125 48.804688 27.574219 C 48.515625 27.558594 46.855469 27.601562 46.382812 27.640625 C 45.707031 27.695312 45.3125 27.71875 44.589844 27.738281 C 43.582031 27.769531 42.460938 27.839844 42.4375 27.875 C 42.390625 27.949219 42.359375 28.296875 42.390625 28.433594 C 42.40625 28.515625 42.34375 28.511719 43.128906 28.480469 Z M 27.074219 27.765625 C 27.160156 27.746094 27.242188 27.71875 27.324219 27.683594 C 27.660156 27.539062 27.992188 27.167969 28.152344 26.757812 C 28.210938 26.613281 28.269531 26.546875 28.363281 26.527344 C 28.480469 26.507812 28.550781 26.5625 28.679688 26.78125 C 28.890625 27.140625 29.042969 27.289062 29.398438 27.464844 C 29.671875 27.597656 30.128906 27.695312 30.492188 27.695312 L 30.664062 27.695312 L 30.609375 27.628906 C 30.464844 27.457031 30.429688 27.300781 30.503906 27.140625 C 30.617188 26.898438 30.871094 26.859375 31.5625 26.984375 C 32.105469 27.082031 32.003906 27.101562 32.347656 26.835938 C 32.449219 26.757812 32.550781 26.675781 32.644531 26.585938 C 32.644531 26.578125 32.585938 26.5625 32.515625 26.558594 C 32.359375 26.542969 32.085938 26.429688 31.878906 26.292969 C 31.695312 26.175781 31.453125 25.941406 31.273438 25.714844 C 31.230469 25.648438 31.179688 25.59375 31.121094 25.539062 C 31.089844 25.566406 31.066406 25.601562 31.046875 25.640625 C 30.902344 25.851562 30.738281 26.042969 30.546875 26.21875 C 30.214844 26.5 29.765625 26.757812 29.609375 26.757812 C 29.539062 26.757812 29.511719 26.746094 29.472656 26.703125 C 29.414062 26.632812 29.410156 26.558594 29.460938 26.484375 C 29.523438 26.425781 29.589844 26.382812 29.664062 26.34375 C 29.882812 26.230469 30.082031 26.089844 30.261719 25.921875 L 30.398438 25.792969 L 30.261719 25.765625 C 29.953125 25.691406 29.714844 25.523438 29.546875 25.257812 C 29.519531 25.207031 29.484375 25.164062 29.445312 25.125 C 29.421875 25.148438 29.398438 25.171875 29.386719 25.203125 C 29.25 25.417969 28.828125 25.683594 28.539062 25.734375 C 28.351562 25.765625 28.222656 25.730469 28.175781 25.632812 C 28.109375 25.492188 28.1875 25.394531 28.390625 25.367188 C 28.589844 25.332031 28.761719 25.25 28.914062 25.117188 C 29.058594 24.992188 29.097656 24.90625 29.097656 24.734375 C 29.097656 24.660156 29.113281 24.457031 29.132812 24.285156 C 29.269531 23 29.65625 21.796875 30.292969 20.671875 C 30.4375 20.417969 30.8125 19.851562 30.996094 19.617188 C 31.074219 19.511719 31.144531 19.417969 31.15625 19.398438 C 31.171875 19.375 31.082031 19.371094 30.511719 19.382812 C 29.757812 19.402344 29.71875 19.394531 29.660156 19.257812 C 29.628906 19.207031 29.628906 19.15625 29.65625 19.105469 C 29.714844 18.972656 29.707031 18.972656 30.664062 18.960938 L 31.539062 18.949219 L 31.875 18.625 C 32.902344 17.632812 33.972656 16.960938 35.304688 16.476562 C 36.257812 16.128906 37.226562 15.953125 38.378906 15.921875 C 39.082031 15.898438 39.777344 15.960938 40.464844 16.117188 C 42.003906 16.457031 43.199219 17.023438 44.527344 18.050781 C 44.546875 18.066406 44.578125 18.023438 44.640625 17.902344 C 44.953125 17.285156 45.566406 16.734375 46.214844 16.476562 C 46.515625 16.347656 46.828125 16.289062 47.152344 16.296875 C 47.308594 16.292969 47.464844 16.296875 47.621094 16.3125 L 47.746094 16.328125 L 47.753906 16.234375 C 47.796875 15.886719 47.820312 15.753906 47.890625 15.554688 C 48.039062 15.109375 48.28125 14.726562 48.617188 14.398438 C 49.050781 13.964844 49.464844 13.726562 50.054688 13.566406 C 50.25 13.511719 50.304688 13.507812 50.65625 13.507812 C 50.816406 13.503906 50.980469 13.511719 51.144531 13.523438 L 51.25 13.542969 L 51.242188 11.550781 L 51.238281 9.566406 L 51.105469 9.511719 C 50.929688 9.441406 50.613281 9.425781 50.410156 9.476562 C 50.089844 9.554688 49.765625 9.792969 49.644531 10.042969 C 49.585938 10.160156 49.527344 10.378906 49.542969 10.40625 C 49.550781 10.417969 49.714844 10.425781 49.90625 10.425781 C 50.375 10.425781 50.457031 10.457031 50.457031 10.648438 C 50.449219 10.757812 50.390625 10.824219 50.28125 10.84375 C 50.199219 10.855469 48.261719 10.820312 48.105469 10.804688 C 47.960938 10.789062 47.882812 10.726562 47.867188 10.617188 C 47.855469 10.550781 47.863281 10.527344 47.921875 10.464844 L 47.988281 10.390625 L 49.113281 10.40625 L 49.113281 10.34375 C 49.113281 10.121094 49.277344 9.769531 49.484375 9.546875 C 49.898438 9.105469 50.535156 8.914062 51.09375 9.0625 C 51.160156 9.082031 51.222656 9.097656 51.230469 9.097656 C 51.257812 9.097656 51.253906 8.328125 51.226562 8.070312 C 51.164062 7.472656 50.941406 7.003906 50.523438 6.589844 C 50.199219 6.257812 49.804688 6.042969 49.351562 5.945312 C 49.199219 5.90625 48.652344 5.90625 38.90625 5.90625 C 30.417969 5.90625 28.605469 5.910156 28.503906 5.933594 C 27.996094 6.054688 27.632812 6.25 27.289062 6.589844 C 26.949219 6.925781 26.730469 7.324219 26.632812 7.789062 C 26.574219 8.070312 26.574219 8.085938 26.648438 8.101562 C 26.683594 8.109375 27.601562 8.113281 28.691406 8.113281 C 29.78125 8.113281 31.054688 8.121094 31.523438 8.128906 L 32.371094 8.144531 L 32.496094 7.894531 C 32.855469 7.175781 33.492188 6.746094 34.207031 6.746094 C 34.703125 6.746094 35.0625 6.898438 35.441406 7.265625 C 35.855469 7.667969 36.042969 8.121094 36.070312 8.765625 L 36.085938 9.074219 L 36.292969 9.074219 C 36.597656 9.074219 36.695312 9.128906 36.695312 9.300781 C 36.695312 9.394531 36.59375 9.488281 36.488281 9.488281 C 35.308594 9.496094 32.476562 9.480469 32.414062 9.46875 C 32.304688 9.441406 32.25 9.386719 32.234375 9.289062 C 32.222656 9.222656 32.230469 9.199219 32.285156 9.136719 L 32.355469 9.0625 L 33.992188 9.070312 L 35.632812 9.078125 L 35.648438 8.929688 C 35.667969 8.734375 35.628906 8.460938 35.546875 8.214844 C 35.34375 7.609375 34.863281 7.207031 34.300781 7.164062 C 34.058594 7.152344 33.828125 7.199219 33.613281 7.3125 C 33.457031 7.386719 33.390625 7.4375 33.226562 7.601562 C 33.050781 7.78125 32.863281 8.039062 32.863281 8.109375 C 32.863281 8.128906 32.945312 8.132812 33.175781 8.128906 C 33.457031 8.128906 33.5 8.132812 33.566406 8.171875 C 33.683594 8.234375 33.710938 8.324219 33.65625 8.441406 C 33.578125 8.574219 33.707031 8.570312 31.070312 8.550781 C 29.75 8.542969 28.199219 8.53125 27.628906 8.53125 L 26.589844 8.53125 L 26.589844 14.550781 L 26.6875 14.4375 C 26.914062 14.183594 27.339844 13.925781 27.722656 13.820312 C 27.957031 13.753906 28.4375 13.746094 28.65625 13.808594 C 28.898438 13.871094 29.113281 13.988281 29.292969 14.160156 C 29.554688 14.398438 29.703125 14.691406 29.738281 15.039062 C 29.757812 15.199219 29.738281 15.519531 29.703125 15.609375 C 29.695312 15.632812 29.71875 15.65625 29.773438 15.683594 C 29.941406 15.78125 30.089844 15.902344 30.214844 16.046875 C 30.421875 16.289062 30.542969 16.5625 30.574219 16.878906 C 30.609375 17.191406 30.546875 17.484375 30.398438 17.761719 C 30.367188 17.816406 30.339844 17.871094 30.316406 17.929688 C 30.320312 17.933594 30.601562 17.945312 30.945312 17.953125 L 31.570312 17.972656 L 31.632812 18.042969 C 31.667969 18.078125 31.691406 18.125 31.695312 18.175781 C 31.6875 18.269531 31.636719 18.335938 31.550781 18.375 C 31.503906 18.394531 28.308594 18.339844 26.992188 18.300781 L 26.589844 18.285156 L 26.589844 27.824219 L 26.757812 27.8125 C 26.863281 27.804688 26.96875 27.789062 27.074219 27.765625 Z M 30.3125 26.941406 C 30.265625 26.921875 30.21875 26.804688 30.234375 26.734375 C 30.253906 26.648438 30.996094 25.914062 31.085938 25.894531 C 31.207031 25.871094 31.3125 26.003906 31.273438 26.140625 C 31.25 26.238281 30.648438 26.859375 30.515625 26.929688 C 30.449219 26.957031 30.382812 26.960938 30.3125 26.941406 Z M 34.523438 14.921875 C 34.460938 14.894531 34.421875 14.847656 34.410156 14.777344 C 34.398438 14.710938 34.417969 14.652344 34.46875 14.605469 C 34.515625 14.558594 34.554688 14.542969 34.671875 14.53125 C 34.75 14.523438 35.539062 14.519531 36.421875 14.523438 L 38.035156 14.53125 L 38.101562 14.59375 C 38.21875 14.707031 38.179688 14.875 38.023438 14.933594 C 37.992188 14.945312 37.28125 14.953125 36.28125 14.953125 C 34.804688 14.953125 34.582031 14.949219 34.523438 14.921875 Z M 40.703125 14.070312 C 39.144531 14.054688 37.824219 14.042969 37.769531 14.042969 C 37.554688 14.039062 37.445312 13.832031 37.585938 13.695312 C 37.640625 13.640625 37.652344 13.636719 37.925781 13.628906 L 38.207031 13.621094 L 38.207031 13.414062 C 38.210938 12.894531 38.515625 12.398438 39.035156 12.0625 C 39.429688 11.808594 39.902344 11.703125 40.292969 11.785156 C 40.378906 11.804688 40.453125 11.820312 40.460938 11.820312 C 40.472656 11.746094 40.476562 11.675781 40.472656 11.605469 C 40.46875 11.359375 40.527344 11.128906 40.644531 10.914062 C 41.167969 9.867188 42.695312 9.480469 43.917969 10.089844 C 44.730469 10.488281 45.175781 11.265625 45.03125 12.019531 C 45.015625 12.105469 44.992188 12.1875 44.964844 12.265625 C 44.945312 12.316406 44.9375 12.355469 44.949219 12.359375 C 44.992188 12.378906 45.03125 12.40625 45.070312 12.433594 C 45.375 12.632812 45.566406 13.027344 45.539062 13.398438 C 45.535156 13.476562 45.523438 13.554688 45.511719 13.628906 L 45.496094 13.6875 L 45.773438 13.695312 C 46.070312 13.703125 46.121094 13.722656 46.167969 13.84375 C 46.191406 13.9375 46.164062 14.011719 46.085938 14.070312 C 46.019531 14.113281 45.066406 14.113281 40.703125 14.070312 Z M 45.085938 13.515625 C 45.117188 13.425781 45.121094 13.335938 45.105469 13.242188 C 45.066406 13.015625 44.964844 12.855469 44.8125 12.777344 L 44.71875 12.726562 L 44.582031 12.859375 C 44.460938 12.980469 44.441406 12.996094 44.359375 12.996094 C 44.300781 13 44.253906 12.984375 44.214844 12.945312 C 44.171875 12.90625 44.15625 12.859375 44.160156 12.800781 C 44.160156 12.726562 44.179688 12.691406 44.300781 12.550781 C 44.550781 12.25 44.632812 12.015625 44.617188 11.667969 C 44.597656 11.320312 44.464844 11.050781 44.171875 10.777344 C 43.765625 10.394531 43.230469 10.210938 42.597656 10.234375 C 42.226562 10.25 42.027344 10.296875 41.714844 10.449219 C 41.554688 10.519531 41.414062 10.621094 41.296875 10.75 C 41.195312 10.84375 41.109375 10.949219 41.039062 11.066406 C 40.890625 11.34375 40.859375 11.636719 40.945312 11.9375 L 40.992188 12.109375 L 40.929688 12.226562 C 40.828125 12.421875 40.71875 12.453125 40.523438 12.328125 C 40.371094 12.230469 40.203125 12.183594 40.019531 12.1875 C 39.503906 12.1875 38.957031 12.535156 38.734375 13.003906 C 38.664062 13.152344 38.621094 13.386719 38.640625 13.519531 L 38.65625 13.621094 L 39.210938 13.636719 C 39.746094 13.648438 44.28125 13.6875 44.796875 13.683594 L 45.046875 13.679688 Z M 46.082031 13.234375 C 46.019531 13.203125 45.980469 13.15625 45.96875 13.085938 C 45.957031 13.019531 45.972656 12.957031 46.019531 12.90625 C 46.097656 12.835938 46.246094 12.824219 47.082031 12.820312 L 47.773438 12.820312 L 47.839844 12.882812 C 47.898438 12.941406 47.917969 13.011719 47.886719 13.089844 C 47.859375 13.171875 47.804688 13.214844 47.71875 13.222656 C 47.582031 13.242188 46.128906 13.253906 46.082031 13.234375 Z M 47.21875 10.652344 C 47.128906 10.570312 47.132812 10.488281 47.226562 10.410156 C 47.296875 10.335938 47.371094 10.332031 47.445312 10.402344 C 47.546875 10.476562 47.554688 10.558594 47.472656 10.652344 C 47.390625 10.746094 47.304688 10.746094 47.21875 10.652344 Z M 37.144531 9.433594 C 37.078125 9.371094 37.070312 9.300781 37.121094 9.226562 C 37.160156 9.175781 37.214844 9.148438 37.277344 9.140625 C 37.335938 9.140625 37.441406 9.261719 37.441406 9.324219 C 37.429688 9.425781 37.371094 9.480469 37.265625 9.488281 C 37.21875 9.488281 37.179688 9.46875 37.144531 9.433594 Z M 46.371094 7.097656 C 46.296875 7.074219 46.246094 7.023438 46.21875 6.949219 C 46.210938 6.855469 46.242188 6.777344 46.320312 6.71875 C 46.363281 6.695312 46.714844 6.691406 48.179688 6.691406 C 49.921875 6.691406 49.992188 6.691406 50.035156 6.730469 C 50.144531 6.828125 50.101562 7.027344 49.964844 7.066406 C 49.890625 7.089844 46.453125 7.121094 46.371094 7.097656 Z M 37.972656 27.402344 C 38.230469 27.152344 38.476562 27.15625 38.605469 27.417969 L 38.660156 27.523438 L 38.882812 27.523438 C 39.007812 27.523438 39.289062 27.515625 39.511719 27.507812 L 39.910156 27.492188 L 39.992188 27.375 C 40.136719 27.160156 40.335938 27.078125 40.515625 27.164062 C 40.585938 27.199219 40.664062 27.296875 40.71875 27.421875 L 40.746094 27.484375 L 41.050781 27.46875 C 41.214844 27.464844 41.535156 27.449219 41.761719 27.441406 L 42.175781 27.429688 L 42.257812 27.320312 C 42.363281 27.179688 42.496094 27.085938 42.613281 27.070312 C 42.699219 27.058594 42.707031 27.050781 42.757812 26.933594 C 42.925781 26.546875 42.992188 26.011719 42.917969 25.65625 C 42.859375 25.417969 42.753906 25.203125 42.601562 25.007812 C 42.542969 24.9375 42.476562 24.859375 42.453125 24.832031 C 42.40625 24.773438 42.402344 24.707031 42.433594 24.640625 C 42.464844 24.574219 42.519531 24.539062 42.59375 24.539062 C 42.792969 24.539062 43.167969 25.046875 43.300781 25.5 C 43.359375 25.695312 43.382812 26.191406 43.347656 26.421875 C 43.304688 26.683594 43.226562 26.933594 43.113281 27.171875 C 43.074219 27.238281 43.042969 27.308594 43.023438 27.386719 C 43.101562 27.390625 43.183594 27.386719 43.261719 27.378906 L 43.492188 27.363281 L 43.527344 27.25 C 43.546875 27.191406 43.574219 27.140625 43.609375 27.09375 C 43.6875 27.027344 43.804688 26.796875 43.855469 26.617188 C 43.921875 26.363281 43.925781 25.804688 43.855469 25.539062 C 43.75 25.097656 43.535156 24.710938 43.214844 24.382812 C 42.894531 24.066406 42.386719 23.800781 41.890625 23.6875 C 41.789062 23.660156 41.6875 23.636719 41.664062 23.632812 C 41.628906 23.621094 41.632812 23.632812 41.679688 23.730469 C 41.855469 24.074219 41.839844 24.492188 41.625 24.921875 C 41.277344 25.636719 40.53125 26.121094 39.628906 26.214844 C 39.058594 26.277344 38.449219 26.175781 37.410156 25.84375 C 36.664062 25.605469 36.457031 25.570312 35.878906 25.589844 C 35.507812 25.59375 35.148438 25.65625 34.796875 25.777344 C 34.335938 25.933594 33.914062 26.152344 33.523438 26.441406 C 33.289062 26.617188 32.644531 27.140625 32.652344 27.148438 C 32.667969 27.164062 33.570312 27.285156 34.117188 27.347656 C 35.304688 27.480469 36.410156 27.542969 37.355469 27.527344 L 37.851562 27.515625 Z M 38.808594 26.816406 C 38.40625 26.765625 38.011719 26.675781 37.628906 26.542969 C 37.460938 26.484375 36.941406 26.332031 36.671875 26.265625 C 36.359375 26.183594 35.933594 26.171875 35.683594 26.234375 C 35.421875 26.304688 35.320312 26.269531 35.292969 26.101562 C 35.265625 25.9375 35.472656 25.816406 35.855469 25.777344 C 36.308594 25.730469 36.722656 25.808594 37.785156 26.148438 C 38.441406 26.359375 38.804688 26.417969 39.445312 26.417969 C 39.855469 26.421875 39.917969 26.417969 40.09375 26.371094 C 40.378906 26.292969 40.652344 26.191406 40.917969 26.0625 C 40.988281 26.019531 41.066406 25.988281 41.152344 25.976562 C 41.308594 25.976562 41.378906 26.171875 41.257812 26.289062 C 41.125 26.421875 40.566406 26.667969 40.152344 26.777344 C 39.96875 26.824219 39.890625 26.832031 39.503906 26.835938 C 39.269531 26.84375 39.039062 26.835938 38.808594 26.816406 Z M 34.800781 26.492188 C 34.722656 26.453125 34.691406 26.390625 34.703125 26.300781 C 34.753906 26.085938 35.066406 26.105469 35.066406 26.328125 C 35.0625 26.394531 35.035156 26.445312 34.976562 26.480469 C 34.921875 26.515625 34.863281 26.519531 34.800781 26.492188 Z M 44.972656 27.304688 C 45.269531 27.292969 45.742188 27.265625 46.027344 27.246094 L 46.542969 27.207031 L 46.59375 27.140625 C 46.664062 27.050781 46.769531 26.789062 46.824219 26.582031 C 46.898438 26.289062 46.875 25.820312 46.765625 25.433594 C 46.726562 25.300781 46.738281 25.234375 46.804688 25.171875 C 46.890625 25.09375 46.972656 25.097656 47.050781 25.183594 C 47.167969 25.300781 47.273438 25.777344 47.273438 26.203125 C 47.273438 26.539062 47.242188 26.734375 47.128906 27.015625 L 47.070312 27.171875 L 47.195312 27.171875 C 47.273438 27.171875 47.332031 27.164062 47.347656 27.144531 C 47.386719 27.050781 47.414062 26.949219 47.4375 26.847656 C 47.492188 26.667969 47.511719 26.480469 47.503906 26.289062 C 47.503906 25.449219 47.117188 24.609375 46.527344 24.167969 C 46.394531 24.066406 46.039062 23.890625 45.808594 23.808594 C 45.628906 23.75 45.441406 23.699219 45.253906 23.667969 C 45.242188 23.667969 45.285156 23.726562 45.34375 23.796875 C 45.558594 24.0625 45.777344 24.5625 45.832031 24.929688 C 45.863281 25.1875 45.851562 25.445312 45.800781 25.703125 C 45.710938 26.035156 45.476562 26.410156 45.175781 26.699219 C 44.960938 26.90625 44.804688 27.015625 44.46875 27.199219 L 44.234375 27.324219 L 44.335938 27.324219 C 44.390625 27.324219 44.675781 27.316406 44.972656 27.304688 Z M 44.472656 26.710938 C 44.828125 26.503906 45.097656 26.222656 45.28125 25.859375 C 45.457031 25.511719 45.476562 25.109375 45.335938 24.667969 C 45.273438 24.464844 45.128906 24.164062 45.058594 24.082031 L 45.015625 24.027344 L 45.027344 24.082031 C 45.042969 24.183594 45.050781 24.289062 45.054688 24.398438 C 45.078125 24.851562 44.984375 25.28125 44.765625 25.683594 C 44.59375 26.007812 44.46875 26.191406 44.402344 26.226562 C 44.347656 26.253906 44.335938 26.273438 44.324219 26.394531 C 44.316406 26.46875 44.296875 26.59375 44.277344 26.667969 C 44.261719 26.742188 44.246094 26.808594 44.246094 26.816406 C 44.246094 26.839844 44.292969 26.816406 44.472656 26.710938 Z M 48.179688 26.601562 C 48.296875 26.53125 48.410156 26.449219 48.519531 26.363281 C 48.941406 26.011719 49.265625 25.421875 49.359375 24.835938 C 49.386719 24.652344 49.371094 24.195312 49.332031 24.070312 L 49.308594 23.984375 L 49.242188 24.230469 C 49.0625 24.925781 48.695312 25.554688 48.136719 26.136719 L 47.949219 26.332031 L 47.933594 26.484375 C 47.925781 26.570312 47.917969 26.664062 47.910156 26.691406 C 47.902344 26.734375 47.90625 26.742188 47.945312 26.730469 C 48.027344 26.695312 48.105469 26.652344 48.179688 26.601562 Z M 33.320312 26.066406 C 33.859375 25.675781 34.566406 25.359375 35.1875 25.238281 C 35.699219 25.132812 36.308594 25.128906 36.773438 25.226562 L 36.9375 25.257812 L 37.054688 25.164062 C 37.238281 25.011719 37.648438 24.707031 37.78125 24.628906 C 37.949219 24.527344 38.34375 24.375 38.601562 24.308594 C 38.765625 24.273438 38.929688 24.246094 39.097656 24.230469 C 39.675781 24.175781 40.066406 24.265625 40.765625 24.617188 C 40.992188 24.730469 41.183594 24.820312 41.191406 24.820312 C 41.222656 24.820312 41.320312 24.585938 41.355469 24.421875 C 41.386719 24.324219 41.386719 24.226562 41.363281 24.125 C 41.316406 23.863281 41.21875 23.757812 40.925781 23.632812 C 40.726562 23.550781 40.664062 23.484375 40.691406 23.382812 C 40.746094 23.199219 41.035156 23.148438 41.582031 23.21875 C 42.371094 23.324219 42.980469 23.585938 43.453125 24.03125 C 43.855469 24.40625 44.125 24.859375 44.257812 25.394531 C 44.273438 25.460938 44.292969 25.527344 44.316406 25.59375 C 44.335938 25.613281 44.457031 25.375 44.519531 25.199219 C 44.617188 24.929688 44.65625 24.648438 44.636719 24.363281 C 44.628906 24.113281 44.621094 24.046875 44.570312 23.90625 C 44.453125 23.589844 44.453125 23.605469 44.523438 23.460938 C 44.613281 23.28125 44.65625 23.269531 45.117188 23.28125 C 45.414062 23.289062 45.507812 23.300781 45.722656 23.359375 C 46.503906 23.558594 46.988281 23.886719 47.398438 24.492188 C 47.457031 24.582031 47.503906 24.632812 47.503906 24.609375 C 47.503906 24.539062 47.441406 24.007812 47.40625 23.808594 C 47.234375 22.785156 46.894531 21.820312 46.386719 20.910156 C 46.203125 20.59375 45.8125 20.003906 45.6875 19.859375 L 45.601562 19.761719 L 44.199219 19.769531 C 42.800781 19.78125 42.796875 19.78125 42.734375 19.734375 C 42.628906 19.667969 42.609375 19.585938 42.675781 19.480469 C 42.746094 19.363281 42.796875 19.355469 43.566406 19.355469 L 44.261719 19.355469 L 44.277344 19.242188 C 44.285156 19.175781 44.289062 19.089844 44.289062 19.042969 C 44.300781 18.9375 44.316406 18.832031 44.339844 18.726562 L 44.386719 18.496094 L 44.292969 18.414062 C 43.742188 17.929688 42.828125 17.378906 42 17.035156 C 40.457031 16.390625 38.605469 16.1875 36.941406 16.480469 C 36.320312 16.59375 35.71875 16.765625 35.132812 16.992188 C 34.160156 17.371094 33.09375 18.050781 32.3125 18.785156 L 32.148438 18.941406 L 33.429688 18.9375 C 34.679688 18.929688 34.710938 18.929688 34.757812 18.972656 C 34.835938 19.03125 34.855469 19.105469 34.820312 19.195312 C 34.773438 19.339844 34.820312 19.335938 33.210938 19.355469 L 31.757812 19.375 L 31.691406 19.433594 C 31.605469 19.519531 31.316406 19.882812 31.113281 20.167969 C 30.273438 21.371094 29.761719 22.695312 29.574219 24.140625 C 29.523438 24.546875 29.523438 24.570312 29.621094 24.652344 C 29.703125 24.742188 29.777344 24.835938 29.84375 24.9375 C 30.066406 25.273438 30.183594 25.347656 30.539062 25.378906 L 30.703125 25.394531 L 30.773438 25.253906 C 30.859375 25.082031 30.910156 25.023438 31.007812 24.996094 C 31.160156 24.945312 31.285156 25.039062 31.605469 25.445312 C 31.839844 25.742188 32.039062 25.914062 32.285156 26.035156 L 32.496094 26.136719 L 32.753906 26.140625 C 32.953125 26.140625 33.019531 26.148438 33.0625 26.175781 C 33.121094 26.21875 33.109375 26.222656 33.320312 26.066406 Z M 39.855469 25.757812 C 40.039062 25.714844 40.21875 25.652344 40.394531 25.574219 L 40.492188 25.523438 L 40.402344 25.484375 C 40.355469 25.464844 40.210938 25.414062 40.085938 25.371094 L 39.855469 25.289062 L 39.492188 25.292969 C 39.292969 25.289062 39.101562 25.304688 38.90625 25.339844 C 38.632812 25.394531 38.554688 25.375 38.492188 25.253906 C 38.457031 25.183594 38.457031 25.164062 38.480469 25.113281 C 38.554688 24.964844 38.816406 24.890625 39.359375 24.871094 C 39.824219 24.855469 40.152344 24.929688 40.640625 25.171875 C 40.703125 25.203125 40.765625 25.234375 40.828125 25.257812 C 40.878906 25.234375 40.917969 25.199219 40.945312 25.148438 C 40.945312 25.140625 40.789062 25.0625 40.601562 24.976562 C 39.9375 24.671875 39.789062 24.636719 39.261719 24.652344 C 38.972656 24.664062 38.871094 24.675781 38.703125 24.71875 C 38.390625 24.808594 38.109375 24.921875 37.9375 25.03125 C 37.695312 25.191406 37.441406 25.394531 37.457031 25.410156 C 37.488281 25.441406 38.269531 25.660156 38.566406 25.726562 C 38.988281 25.816406 39.53125 25.832031 39.855469 25.757812 Z M 48.1875 25.425781 C 48.421875 25.121094 48.605469 24.792969 48.746094 24.4375 C 48.851562 24.1875 48.914062 23.925781 48.9375 23.65625 C 48.976562 23.242188 49.027344 23.125 49.195312 23.085938 C 49.34375 23.050781 49.566406 23.125 49.914062 23.328125 C 50.367188 23.59375 50.78125 23.953125 51.046875 24.320312 C 51.121094 24.421875 51.195312 24.523438 51.214844 24.550781 C 51.242188 24.585938 51.246094 24.375 51.242188 22.699219 L 51.238281 20.804688 L 50.730469 20.804688 C 50.453125 20.804688 49.789062 20.808594 49.253906 20.8125 L 48.28125 20.824219 L 48.226562 20.773438 C 48.195312 20.746094 48.171875 20.710938 48.15625 20.671875 C 48.148438 20.574219 48.179688 20.5 48.257812 20.441406 C 48.308594 20.414062 48.90625 20.398438 50.742188 20.375 L 51.238281 20.367188 L 51.238281 19.734375 L 49.34375 19.746094 C 48.300781 19.75 47.160156 19.757812 46.808594 19.765625 L 46.164062 19.777344 L 46.355469 20.066406 C 46.972656 20.980469 47.417969 21.972656 47.679688 23.042969 C 47.855469 23.742188 47.921875 24.292969 47.941406 25.113281 L 47.953125 25.722656 L 48.007812 25.660156 C 48.035156 25.625 48.117188 25.519531 48.1875 25.425781 Z M 49.324219 19.320312 C 50.363281 19.3125 51.222656 19.300781 51.234375 19.292969 C 51.242188 19.28125 51.246094 18.085938 51.242188 16.632812 L 51.238281 13.988281 L 51.140625 13.957031 C 51.027344 13.933594 50.917969 13.921875 50.804688 13.914062 C 49.917969 13.871094 49 14.390625 48.503906 15.214844 C 48.3125 15.542969 48.1875 15.957031 48.1875 16.296875 L 48.1875 16.472656 L 48.335938 16.546875 C 48.542969 16.652344 48.652344 16.753906 48.652344 16.855469 C 48.652344 16.960938 48.597656 17.03125 48.492188 17.058594 C 48.4375 17.070312 48.382812 17.050781 48.191406 16.953125 C 47.707031 16.703125 47.292969 16.648438 46.757812 16.753906 C 46.015625 16.902344 45.3125 17.472656 44.960938 18.210938 C 44.804688 18.535156 44.710938 18.925781 44.710938 19.238281 L 44.710938 19.359375 L 46.070312 19.347656 C 46.816406 19.339844 48.28125 19.328125 49.324219 19.320312 Z M 49.058594 17.429688 C 48.980469 17.390625 48.9375 17.328125 48.9375 17.238281 C 48.9375 17.175781 49.054688 17.066406 49.125 17.066406 C 49.207031 17.066406 49.3125 17.175781 49.3125 17.261719 C 49.300781 17.351562 49.253906 17.414062 49.167969 17.445312 C 49.128906 17.449219 49.09375 17.445312 49.058594 17.429688 Z M 29.875 17.78125 C 29.996094 17.640625 30.078125 17.480469 30.121094 17.300781 C 30.230469 16.875 30.121094 16.511719 29.789062 16.21875 C 29.535156 15.988281 29.253906 15.890625 28.84375 15.890625 C 28.609375 15.890625 28.597656 15.890625 28.539062 15.832031 C 28.4375 15.734375 28.472656 15.574219 28.609375 15.507812 C 28.695312 15.46875 29.023438 15.457031 29.199219 15.488281 C 29.289062 15.5 29.289062 15.5 29.304688 15.433594 C 29.324219 15.273438 29.320312 15.117188 29.296875 14.957031 C 29.25 14.773438 29.160156 14.617188 29.023438 14.484375 C 28.75 14.21875 28.367188 14.117188 27.9375 14.203125 C 27.574219 14.277344 27.339844 14.40625 27.050781 14.695312 C 26.886719 14.851562 26.820312 14.941406 26.75 15.074219 C 26.582031 15.394531 26.585938 15.347656 26.59375 16.675781 L 26.597656 17.863281 L 27.667969 17.886719 C 28.253906 17.898438 28.96875 17.910156 29.253906 17.914062 L 29.769531 17.914062 Z M 27.851562 15.957031 C 27.730469 15.910156 27.695312 15.738281 27.785156 15.65625 C 27.824219 15.621094 27.871094 15.605469 27.925781 15.609375 C 27.988281 15.601562 28.039062 15.621094 28.074219 15.675781 C 28.101562 15.710938 28.121094 15.75 28.128906 15.792969 C 28.128906 15.910156 27.964844 16.003906 27.851562 15.957031 Z M 27.851562 15.957031 " fill-opacity="1" fill-rule="nonzero"/></g><g fill="#ffffff" fill-opacity="1"><g transform="translate(21.767487, 46.895037)"><g><path d="M 0.015625 -1.5625 L 0.015625 -1.953125 L 1.390625 -1.953125 L 1.390625 -1.5625 L 0.921875 -1.5625 L 0.921875 0 L 0.484375 0 L 0.484375 -1.5625 Z M 0.015625 -1.5625 "/></g></g></g><g fill="#ffffff" fill-opacity="1"><g transform="translate(23.754577, 46.895037)"><g><path d="M 1.125 -1.953125 L 1.921875 0 L 1.4375 0 L 1.296875 -0.390625 L 0.546875 -0.390625 L 0.40625 0 L -0.0625 0 L 0.71875 -1.953125 Z M 1.140625 -0.78125 L 0.921875 -1.34375 L 0.703125 -0.78125 Z M 1.140625 -0.78125 "/></g></g></g><g fill="#ffffff" fill-opacity="1"><g transform="translate(26.183765, 46.895037)"><g><path d="M 1.90625 0 L 1.296875 0 L 0.578125 -0.828125 L 0.578125 0 L 0.140625 0 L 0.140625 -1.953125 L 0.578125 -1.953125 L 0.578125 -1.15625 L 1.25 -1.953125 L 1.796875 -1.953125 L 1 -1.03125 Z M 1.90625 0 "/></g></g></g><g fill="#ffffff" fill-opacity="1"><g transform="translate(28.620007, 46.895037)"><g><path d="M 1.25 -1.953125 L 1.25 -1.5625 L 0.578125 -1.5625 L 0.578125 -1.171875 L 1.234375 -1.171875 L 1.234375 -0.78125 L 0.578125 -0.78125 L 0.578125 -0.390625 L 1.25 -0.390625 L 1.25 0 L 0.140625 0 L 0.140625 -1.953125 Z M 1.25 -1.953125 "/></g></g></g><g fill="#ffffff" fill-opacity="1"><g transform="translate(30.569471, 46.895037)"><g/></g></g><g fill="#ffffff" fill-opacity="1"><g transform="translate(31.796996, 46.895037)"><g><path d="M 0.046875 -0.96875 C 0.046875 -1.25 0.140625 -1.488281 0.328125 -1.6875 C 0.523438 -1.882812 0.757812 -1.984375 1.03125 -1.984375 C 1.300781 -1.984375 1.53125 -1.882812 1.71875 -1.6875 C 1.914062 -1.5 2.015625 -1.257812 2.015625 -0.96875 C 2.015625 -0.6875 1.921875 -0.445312 1.734375 -0.25 C 1.546875 -0.0625 1.3125 0.03125 1.03125 0.03125 C 0.75 0.03125 0.515625 -0.0625 0.328125 -0.25 C 0.140625 -0.445312 0.046875 -0.6875 0.046875 -0.96875 Z M 0.53125 -0.96875 C 0.53125 -0.875 0.546875 -0.78125 0.578125 -0.6875 C 0.609375 -0.601562 0.660156 -0.53125 0.734375 -0.46875 C 0.816406 -0.414062 0.914062 -0.390625 1.03125 -0.390625 C 1.195312 -0.390625 1.320312 -0.445312 1.40625 -0.5625 C 1.488281 -0.675781 1.53125 -0.8125 1.53125 -0.96875 C 1.53125 -1.132812 1.488281 -1.273438 1.40625 -1.390625 C 1.320312 -1.503906 1.195312 -1.5625 1.03125 -1.5625 C 0.875 -1.5625 0.75 -1.503906 0.65625 -1.390625 C 0.570312 -1.273438 0.53125 -1.132812 0.53125 -0.96875 Z M 0.53125 -0.96875 "/></g></g></g><g fill="#ffffff" fill-opacity="1"><g transform="translate(34.444883, 46.895037)"><g><path d="M 0.578125 -1.203125 L 0.578125 0 L 0.140625 0 L 0.140625 -1.953125 L 0.578125 -1.953125 L 1.359375 -0.734375 L 1.359375 -1.953125 L 1.8125 -1.953125 L 1.8125 0 L 1.359375 0 L 0.59375 -1.203125 Z M 0.578125 -1.203125 "/></g></g></g><g fill="#ffffff" fill-opacity="1"><g transform="translate(36.972837, 46.895037)"><g/></g></g><g fill="#ffffff" fill-opacity="1"><g transform="translate(38.200361, 46.895037)"><g><path d="M 0.75 0 L -0.0625 -1.953125 L 0.4375 -1.953125 L 0.921875 -0.671875 L 1.421875 -1.953125 L 1.921875 -1.953125 L 1.09375 0 Z M 0.75 0 "/></g></g></g><g fill="#ffffff" fill-opacity="1"><g transform="translate(40.629549, 46.895037)"><g><path d="M 1.125 -1.953125 L 1.921875 0 L 1.4375 0 L 1.296875 -0.390625 L 0.546875 -0.390625 L 0.40625 0 L -0.0625 0 L 0.71875 -1.953125 Z M 1.140625 -0.78125 L 0.921875 -1.34375 L 0.703125 -0.78125 Z M 1.140625 -0.78125 "/></g></g></g><g fill="#ffffff" fill-opacity="1"><g transform="translate(43.058737, 46.895037)"><g><path d="M 1.171875 -0.40625 C 1.242188 -0.40625 1.3125 -0.414062 1.375 -0.4375 C 1.4375 -0.457031 1.484375 -0.472656 1.515625 -0.484375 L 1.5625 -0.515625 L 1.75 -0.140625 C 1.738281 -0.140625 1.726562 -0.132812 1.71875 -0.125 C 1.707031 -0.113281 1.679688 -0.0976562 1.640625 -0.078125 C 1.597656 -0.0546875 1.554688 -0.0351562 1.515625 -0.015625 C 1.472656 -0.00390625 1.414062 0.00390625 1.34375 0.015625 C 1.269531 0.0234375 1.191406 0.03125 1.109375 0.03125 C 0.929688 0.03125 0.757812 -0.0078125 0.59375 -0.09375 C 0.425781 -0.1875 0.289062 -0.3125 0.1875 -0.46875 C 0.09375 -0.625 0.046875 -0.789062 0.046875 -0.96875 C 0.046875 -1.101562 0.078125 -1.234375 0.140625 -1.359375 C 0.203125 -1.484375 0.28125 -1.59375 0.375 -1.6875 C 0.46875 -1.78125 0.578125 -1.851562 0.703125 -1.90625 C 0.835938 -1.957031 0.972656 -1.984375 1.109375 -1.984375 C 1.234375 -1.984375 1.347656 -1.96875 1.453125 -1.9375 C 1.554688 -1.90625 1.632812 -1.875 1.6875 -1.84375 L 1.75 -1.796875 L 1.5625 -1.421875 C 1.550781 -1.429688 1.535156 -1.441406 1.515625 -1.453125 C 1.492188 -1.472656 1.445312 -1.492188 1.375 -1.515625 C 1.3125 -1.535156 1.242188 -1.546875 1.171875 -1.546875 C 1.066406 -1.546875 0.972656 -1.523438 0.890625 -1.484375 C 0.804688 -1.453125 0.738281 -1.40625 0.6875 -1.34375 C 0.632812 -1.289062 0.59375 -1.234375 0.5625 -1.171875 C 0.539062 -1.109375 0.53125 -1.039062 0.53125 -0.96875 C 0.53125 -0.820312 0.585938 -0.691406 0.703125 -0.578125 C 0.816406 -0.460938 0.972656 -0.40625 1.171875 -0.40625 Z M 1.171875 -0.40625 "/></g></g></g><g fill="#ffffff" fill-opacity="1"><g transform="translate(45.415024, 46.895037)"><g><path d="M 1.125 -1.953125 L 1.921875 0 L 1.4375 0 L 1.296875 -0.390625 L 0.546875 -0.390625 L 0.40625 0 L -0.0625 0 L 0.71875 -1.953125 Z M 1.140625 -0.78125 L 0.921875 -1.34375 L 0.703125 -0.78125 Z M 1.140625 -0.78125 "/></g></g></g><g fill="#ffffff" fill-opacity="1"><g transform="translate(47.844214, 46.895037)"><g><path d="M 0.015625 -1.5625 L 0.015625 -1.953125 L 1.390625 -1.953125 L 1.390625 -1.5625 L 0.921875 -1.5625 L 0.921875 0 L 0.484375 0 L 0.484375 -1.5625 Z M 0.015625 -1.5625 "/></g></g></g><g fill="#ffffff" fill-opacity="1"><g transform="translate(49.831305, 46.895037)"><g><path d="M 0.578125 -1.953125 L 0.578125 0 L 0.140625 0 L 0.140625 -1.953125 Z M 0.578125 -1.953125 "/></g></g></g><g fill="#ffffff" fill-opacity="1"><g transform="translate(51.141139, 46.895037)"><g><path d="M 0.046875 -0.96875 C 0.046875 -1.25 0.140625 -1.488281 0.328125 -1.6875 C 0.523438 -1.882812 0.757812 -1.984375 1.03125 -1.984375 C 1.300781 -1.984375 1.53125 -1.882812 1.71875 -1.6875 C 1.914062 -1.5 2.015625 -1.257812 2.015625 -0.96875 C 2.015625 -0.6875 1.921875 -0.445312 1.734375 -0.25 C 1.546875 -0.0625 1.3125 0.03125 1.03125 0.03125 C 0.75 0.03125 0.515625 -0.0625 0.328125 -0.25 C 0.140625 -0.445312 0.046875 -0.6875 0.046875 -0.96875 Z M 0.53125 -0.96875 C 0.53125 -0.875 0.546875 -0.78125 0.578125 -0.6875 C 0.609375 -0.601562 0.660156 -0.53125 0.734375 -0.46875 C 0.816406 -0.414062 0.914062 -0.390625 1.03125 -0.390625 C 1.195312 -0.390625 1.320312 -0.445312 1.40625 -0.5625 C 1.488281 -0.675781 1.53125 -0.8125 1.53125 -0.96875 C 1.53125 -1.132812 1.488281 -1.273438 1.40625 -1.390625 C 1.320312 -1.503906 1.195312 -1.5625 1.03125 -1.5625 C 0.875 -1.5625 0.75 -1.503906 0.65625 -1.390625 C 0.570312 -1.273438 0.53125 -1.132812 0.53125 -0.96875 Z M 0.53125 -0.96875 "/></g></g></g><g fill="#ffffff" fill-opacity="1"><g transform="translate(53.789027, 46.895037)"><g><path d="M 0.578125 -1.203125 L 0.578125 0 L 0.140625 0 L 0.140625 -1.953125 L 0.578125 -1.953125 L 1.359375 -0.734375 L 1.359375 -1.953125 L 1.8125 -1.953125 L 1.8125 0 L 1.359375 0 L 0.59375 -1.203125 Z M 0.578125 -1.203125 "/></g></g></g><g fill="#ffffff" fill-opacity="1"><g transform="translate(10.533727, 62.491922)"><g><path d="M 1.953125 0 L 1.84375 -1.28125 L 1.828125 -1.28125 L 1.390625 -0.015625 L 1.09375 -0.015625 L 0.65625 -1.28125 L 0.640625 -1.28125 L 0.53125 0 L 0.046875 0 L 0.234375 -2.171875 L 0.765625 -2.171875 L 1.234375 -0.921875 L 1.71875 -2.171875 L 2.25 -2.171875 L 2.4375 0 Z M 1.953125 0 "/></g></g></g><g fill="#ffffff" fill-opacity="1"><g transform="translate(15.082865, 62.491922)"><g><path d="M 1.25 -2.171875 L 2.125 0 L 1.59375 0 L 1.4375 -0.4375 L 0.609375 -0.4375 L 0.453125 0 L -0.078125 0 L 0.796875 -2.171875 Z M 1.265625 -0.859375 L 1.03125 -1.5 L 0.78125 -0.859375 Z M 1.265625 -0.859375 "/></g></g></g><g fill="#ffffff" fill-opacity="1"><g transform="translate(19.20675, 62.491922)"><g><path d="M 2.125 0 L 1.453125 0 L 0.65625 -0.921875 L 0.65625 0 L 0.15625 0 L 0.15625 -2.171875 L 0.65625 -2.171875 L 0.65625 -1.28125 L 1.390625 -2.171875 L 2 -2.171875 L 1.125 -1.140625 Z M 2.125 0 "/></g></g></g><g fill="#ffffff" fill-opacity="1"><g transform="translate(23.33851, 62.491922)"><g><path d="M 1.390625 -2.171875 L 1.390625 -1.734375 L 0.65625 -1.734375 L 0.65625 -1.296875 L 1.359375 -1.296875 L 1.359375 -0.875 L 0.65625 -0.875 L 0.65625 -0.4375 L 1.390625 -0.4375 L 1.390625 0 L 0.15625 0 L 0.15625 -2.171875 Z M 1.390625 -2.171875 "/></g></g></g><g fill="#ffffff" fill-opacity="1"><g transform="translate(26.926892, 62.491922)"><g/></g></g><g fill="#ffffff" fill-opacity="1"><g transform="translate(29.709393, 62.491922)"><g><path d="M -0.078125 -2.171875 L 0.515625 -2.171875 L 0.96875 -1.46875 L 1.421875 -2.171875 L 2.015625 -2.171875 L 1.21875 -0.96875 L 1.21875 0 L 0.71875 0 L 0.71875 -0.96875 Z M -0.078125 -2.171875 "/></g></g></g><g fill="#ffffff" fill-opacity="1"><g transform="translate(33.707278, 62.491922)"><g><path d="M 0.0625 -1.078125 C 0.0625 -1.390625 0.164062 -1.65625 0.375 -1.875 C 0.59375 -2.09375 0.851562 -2.203125 1.15625 -2.203125 C 1.457031 -2.203125 1.710938 -2.09375 1.921875 -1.875 C 2.128906 -1.664062 2.234375 -1.398438 2.234375 -1.078125 C 2.234375 -0.765625 2.128906 -0.5 1.921875 -0.28125 C 1.710938 -0.0625 1.457031 0.046875 1.15625 0.046875 C 0.832031 0.046875 0.566406 -0.0625 0.359375 -0.28125 C 0.160156 -0.5 0.0625 -0.765625 0.0625 -1.078125 Z M 0.59375 -1.078125 C 0.59375 -0.960938 0.609375 -0.859375 0.640625 -0.765625 C 0.679688 -0.671875 0.742188 -0.59375 0.828125 -0.53125 C 0.910156 -0.46875 1.019531 -0.4375 1.15625 -0.4375 C 1.332031 -0.4375 1.46875 -0.5 1.5625 -0.625 C 1.65625 -0.75 1.703125 -0.898438 1.703125 -1.078125 C 1.703125 -1.253906 1.65625 -1.40625 1.5625 -1.53125 C 1.46875 -1.664062 1.332031 -1.734375 1.15625 -1.734375 C 0.976562 -1.734375 0.835938 -1.664062 0.734375 -1.53125 C 0.640625 -1.40625 0.59375 -1.253906 0.59375 -1.078125 Z M 0.59375 -1.078125 "/></g></g></g><g fill="#ffffff" fill-opacity="1"><g transform="translate(38.075291, 62.491922)"><g><path d="M 1.828125 -2.171875 L 1.828125 -0.765625 C 1.828125 -0.503906 1.753906 -0.300781 1.609375 -0.15625 C 1.460938 -0.0195312 1.25 0.046875 0.96875 0.046875 C 0.695312 0.046875 0.488281 -0.0195312 0.34375 -0.15625 C 0.195312 -0.300781 0.125 -0.503906 0.125 -0.765625 L 0.125 -2.171875 L 0.625 -2.171875 L 0.625 -0.90625 C 0.625 -0.738281 0.648438 -0.617188 0.703125 -0.546875 C 0.765625 -0.484375 0.851562 -0.453125 0.96875 -0.453125 C 1.09375 -0.453125 1.179688 -0.484375 1.234375 -0.546875 C 1.296875 -0.617188 1.328125 -0.738281 1.328125 -0.90625 L 1.328125 -2.171875 Z M 1.828125 -2.171875 "/></g></g></g><g fill="#ffffff" fill-opacity="1"><g transform="translate(42.094177, 62.491922)"><g><path d="M 0.15625 -2.171875 L 0.9375 -2.171875 C 1.144531 -2.171875 1.3125 -2.113281 1.4375 -2 C 1.570312 -1.882812 1.640625 -1.722656 1.640625 -1.515625 C 1.640625 -1.359375 1.597656 -1.222656 1.515625 -1.109375 C 1.441406 -1.003906 1.332031 -0.929688 1.1875 -0.890625 L 1.9375 0 L 1.3125 0 L 0.65625 -0.859375 L 0.65625 0 L 0.15625 0 Z M 0.65625 -1.203125 L 0.703125 -1.203125 C 0.753906 -1.203125 0.796875 -1.203125 0.828125 -1.203125 C 0.859375 -1.203125 0.894531 -1.207031 0.9375 -1.21875 C 0.976562 -1.226562 1.007812 -1.242188 1.03125 -1.265625 C 1.050781 -1.285156 1.070312 -1.3125 1.09375 -1.34375 C 1.113281 -1.382812 1.125 -1.429688 1.125 -1.484375 C 1.125 -1.535156 1.113281 -1.578125 1.09375 -1.609375 C 1.070312 -1.648438 1.050781 -1.679688 1.03125 -1.703125 C 1.007812 -1.722656 0.976562 -1.738281 0.9375 -1.75 C 0.894531 -1.757812 0.859375 -1.765625 0.828125 -1.765625 C 0.796875 -1.765625 0.753906 -1.765625 0.703125 -1.765625 L 0.65625 -1.765625 Z M 0.65625 -1.203125 "/></g></g></g><g fill="#ffffff" fill-opacity="1"><g transform="translate(46.03956, 62.491922)"><g/></g></g><g fill="#ffffff" fill-opacity="1"><g transform="translate(48.822061, 62.491922)"><g><path d="M 0.15625 -2.171875 L 0.78125 -2.171875 C 1.082031 -2.171875 1.335938 -2.066406 1.546875 -1.859375 C 1.765625 -1.648438 1.875 -1.390625 1.875 -1.078125 C 1.875 -0.765625 1.765625 -0.503906 1.546875 -0.296875 C 1.335938 -0.0976562 1.082031 0 0.78125 0 L 0.15625 0 Z M 0.65625 -0.4375 L 0.734375 -0.4375 C 0.910156 -0.4375 1.054688 -0.5 1.171875 -0.625 C 1.285156 -0.75 1.34375 -0.898438 1.34375 -1.078125 C 1.34375 -1.265625 1.285156 -1.414062 1.171875 -1.53125 C 1.054688 -1.65625 0.910156 -1.71875 0.734375 -1.71875 L 0.65625 -1.71875 Z M 0.65625 -0.4375 "/></g></g></g><g fill="#ffffff" fill-opacity="1"><g transform="translate(52.825196, 62.491922)"><g><path d="M 0.15625 -2.171875 L 0.9375 -2.171875 C 1.144531 -2.171875 1.3125 -2.113281 1.4375 -2 C 1.570312 -1.882812 1.640625 -1.722656 1.640625 -1.515625 C 1.640625 -1.359375 1.597656 -1.222656 1.515625 -1.109375 C 1.441406 -1.003906 1.332031 -0.929688 1.1875 -0.890625 L 1.9375 0 L 1.3125 0 L 0.65625 -0.859375 L 0.65625 0 L 0.15625 0 Z M 0.65625 -1.203125 L 0.703125 -1.203125 C 0.753906 -1.203125 0.796875 -1.203125 0.828125 -1.203125 C 0.859375 -1.203125 0.894531 -1.207031 0.9375 -1.21875 C 0.976562 -1.226562 1.007812 -1.242188 1.03125 -1.265625 C 1.050781 -1.285156 1.070312 -1.3125 1.09375 -1.34375 C 1.113281 -1.382812 1.125 -1.429688 1.125 -1.484375 C 1.125 -1.535156 1.113281 -1.578125 1.09375 -1.609375 C 1.070312 -1.648438 1.050781 -1.679688 1.03125 -1.703125 C 1.007812 -1.722656 0.976562 -1.738281 0.9375 -1.75 C 0.894531 -1.757812 0.859375 -1.765625 0.828125 -1.765625 C 0.796875 -1.765625 0.753906 -1.765625 0.703125 -1.765625 L 0.65625 -1.765625 Z M 0.65625 -1.203125 "/></g></g></g><g fill="#ffffff" fill-opacity="1"><g transform="translate(56.770579, 62.491922)"><g><path d="M 1.390625 -2.171875 L 1.390625 -1.734375 L 0.65625 -1.734375 L 0.65625 -1.296875 L 1.359375 -1.296875 L 1.359375 -0.875 L 0.65625 -0.875 L 0.65625 -0.4375 L 1.390625 -0.4375 L 1.390625 0 L 0.15625 0 L 0.15625 -2.171875 Z M 1.390625 -2.171875 "/></g></g></g><g fill="#ffffff" fill-opacity="1"><g transform="translate(60.358962, 62.491922)"><g><path d="M 1.25 -2.171875 L 2.125 0 L 1.59375 0 L 1.4375 -0.4375 L 0.609375 -0.4375 L 0.453125 0 L -0.078125 0 L 0.796875 -2.171875 Z M 1.265625 -0.859375 L 1.03125 -1.5 L 0.78125 -0.859375 Z M 1.265625 -0.859375 "/></g></g></g><g fill="#ffffff" fill-opacity="1"><g transform="translate(64.482847, 62.491922)"><g><path d="M 1.953125 0 L 1.84375 -1.28125 L 1.828125 -1.28125 L 1.390625 -0.015625 L 1.09375 -0.015625 L 0.65625 -1.28125 L 0.640625 -1.28125 L 0.53125 0 L 0.046875 0 L 0.234375 -2.171875 L 0.765625 -2.171875 L 1.234375 -0.921875 L 1.71875 -2.171875 L 2.25 -2.171875 L 2.4375 0 Z M 1.953125 0 "/></g></g></g><g fill="#ffffff" fill-opacity="1"><g transform="translate(17.771531, 52.81563)"><g><path d="M 0.046875 -3.5 L 0.046875 -4.375 L 3.125 -4.375 L 3.125 -3.5 L 2.078125 -3.5 L 2.078125 0 L 1.078125 0 L 1.078125 -3.5 Z M 0.046875 -3.5 "/></g></g></g><g fill="#ffffff" fill-opacity="1"><g transform="translate(20.939727, 52.81563)"><g><path d="M 1.3125 -4.375 L 1.3125 0 L 0.3125 0 L 0.3125 -4.375 Z M 1.3125 -4.375 "/></g></g></g><g fill="#ffffff" fill-opacity="1"><g transform="translate(22.576984, 52.81563)"><g><path d="M 3.9375 0 L 3.734375 -2.59375 L 3.703125 -2.59375 L 2.8125 -0.03125 L 2.21875 -0.03125 L 1.3125 -2.59375 L 1.296875 -2.59375 L 1.078125 0 L 0.078125 0 L 0.484375 -4.375 L 1.546875 -4.375 L 2.515625 -1.859375 L 3.484375 -4.375 L 4.546875 -4.375 L 4.9375 0 Z M 3.9375 0 "/></g></g></g><g fill="#ffffff" fill-opacity="1"><g transform="translate(27.605695, 52.81563)"><g><path d="M 2.828125 -4.375 L 2.828125 -3.5 L 1.3125 -3.5 L 1.3125 -2.640625 L 2.765625 -2.640625 L 2.765625 -1.765625 L 1.3125 -1.765625 L 1.3125 -0.875 L 2.828125 -0.875 L 2.828125 0 L 0.3125 0 L 0.3125 -4.375 Z M 2.828125 -4.375 "/></g></g></g><g fill="#ffffff" fill-opacity="1"><g transform="translate(30.688839, 52.81563)"><g/></g></g><g fill="#ffffff" fill-opacity="1"><g transform="translate(32.140039, 52.81563)"><g><path d="M 0.046875 -3.5 L 0.046875 -4.375 L 3.125 -4.375 L 3.125 -3.5 L 2.078125 -3.5 L 2.078125 0 L 1.078125 0 L 1.078125 -3.5 Z M 0.046875 -3.5 "/></g></g></g><g fill="#ffffff" fill-opacity="1"><g transform="translate(35.308235, 52.81563)"><g><path d="M 0.125 -2.1875 C 0.125 -2.820312 0.335938 -3.359375 0.765625 -3.796875 C 1.203125 -4.242188 1.722656 -4.46875 2.328125 -4.46875 C 2.941406 -4.46875 3.460938 -4.25 3.890625 -3.8125 C 4.316406 -3.375 4.53125 -2.832031 4.53125 -2.1875 C 4.53125 -1.550781 4.316406 -1.015625 3.890625 -0.578125 C 3.472656 -0.140625 2.953125 0.078125 2.328125 0.078125 C 1.691406 0.078125 1.164062 -0.132812 0.75 -0.5625 C 0.332031 -1 0.125 -1.539062 0.125 -2.1875 Z M 1.203125 -2.1875 C 1.203125 -1.957031 1.234375 -1.75 1.296875 -1.5625 C 1.367188 -1.375 1.492188 -1.210938 1.671875 -1.078125 C 1.847656 -0.953125 2.066406 -0.890625 2.328125 -0.890625 C 2.703125 -0.890625 2.984375 -1.015625 3.171875 -1.265625 C 3.359375 -1.523438 3.453125 -1.832031 3.453125 -2.1875 C 3.453125 -2.550781 3.351562 -2.859375 3.15625 -3.109375 C 2.96875 -3.367188 2.691406 -3.5 2.328125 -3.5 C 1.972656 -3.5 1.695312 -3.367188 1.5 -3.109375 C 1.300781 -2.859375 1.203125 -2.550781 1.203125 -2.1875 Z M 1.203125 -2.1875 "/></g></g></g><g fill="#ffffff" fill-opacity="1"><g transform="translate(39.97016, 52.81563)"><g/></g></g><g fill="#ffffff" fill-opacity="1"><g transform="translate(41.42136, 52.81563)"><g><path d="M 0.3125 -4.375 L 1.890625 -4.375 C 2.304688 -4.375 2.644531 -4.257812 2.90625 -4.03125 C 3.175781 -3.8125 3.3125 -3.492188 3.3125 -3.078125 C 3.3125 -2.753906 3.226562 -2.484375 3.0625 -2.265625 C 2.90625 -2.046875 2.691406 -1.894531 2.421875 -1.8125 L 3.921875 0 L 2.65625 0 L 1.3125 -1.734375 L 1.3125 0 L 0.3125 0 Z M 1.3125 -2.4375 L 1.4375 -2.4375 C 1.53125 -2.4375 1.609375 -2.4375 1.671875 -2.4375 C 1.734375 -2.445312 1.804688 -2.460938 1.890625 -2.484375 C 1.972656 -2.503906 2.035156 -2.53125 2.078125 -2.5625 C 2.128906 -2.601562 2.171875 -2.660156 2.203125 -2.734375 C 2.242188 -2.816406 2.265625 -2.910156 2.265625 -3.015625 C 2.265625 -3.117188 2.242188 -3.207031 2.203125 -3.28125 C 2.171875 -3.351562 2.128906 -3.410156 2.078125 -3.453125 C 2.035156 -3.492188 1.972656 -3.523438 1.890625 -3.546875 C 1.804688 -3.566406 1.734375 -3.578125 1.671875 -3.578125 C 1.609375 -3.578125 1.53125 -3.578125 1.4375 -3.578125 L 1.3125 -3.578125 Z M 1.3125 -2.4375 "/></g></g></g><g fill="#ffffff" fill-opacity="1"><g transform="translate(45.227444, 52.81563)"><g><path d="M 2.828125 -4.375 L 2.828125 -3.5 L 1.3125 -3.5 L 1.3125 -2.640625 L 2.765625 -2.640625 L 2.765625 -1.765625 L 1.3125 -1.765625 L 1.3125 -0.875 L 2.828125 -0.875 L 2.828125 0 L 0.3125 0 L 0.3125 -4.375 Z M 2.828125 -4.375 "/></g></g></g><g fill="#ffffff" fill-opacity="1"><g transform="translate(48.310587, 52.81563)"><g><path d="M 1.3125 -4.375 L 1.3125 -0.875 L 2.828125 -0.875 L 2.828125 0 L 0.3125 0 L 0.3125 -4.375 Z M 1.3125 -4.375 "/></g></g></g><g fill="#ffffff" fill-opacity="1"><g transform="translate(51.313992, 52.81563)"><g><path d="M 2.546875 -4.375 L 4.3125 0 L 3.234375 0 L 2.921875 -0.875 L 1.25 -0.875 L 0.921875 0 L -0.15625 0 L 1.625 -4.375 Z M 2.578125 -1.75 L 2.09375 -3.03125 L 2.078125 -3.03125 L 1.59375 -1.75 Z M 2.578125 -1.75 "/></g></g></g><g fill="#ffffff" fill-opacity="1"><g transform="translate(55.481549, 52.81563)"><g><path d="M 4.421875 0 L 3.125 0 L 2.09375 -1.5 L 1.0625 0 L -0.1875 0 L 1.484375 -2.359375 L 0.09375 -4.375 L 1.28125 -4.375 L 2.09375 -3.1875 L 2.90625 -4.375 L 4.140625 -4.375 L 2.703125 -2.359375 Z M 4.421875 0 "/></g></g></g><path stroke-linecap="round" transform="matrix(0.748813, 0, 0, 0.75, 12.643589, 56.93441)" fill="none" stroke-linejoin="miter" d="M 4.002383 0.498912 L 65.114733 0.498912 " stroke="#ffffff" stroke-width="1" stroke-opacity="1" stroke-miterlimit="4"/><path stroke-linecap="butt" transform="matrix(0.748813, 0, 0, 0.75, 12.643589, 57.30941)" fill-opacity="1" fill="#ffffff" fill-rule="nonzero" stroke-linejoin="miter" d="M 3.50159 -0.00108769 C 3.50159 0.196829 3.459858 0.389537 3.386825 0.571829 C 3.308577 0.759329 3.199028 0.920787 3.05818 1.061412 C 2.922549 1.202037 2.755618 1.311412 2.573037 1.384329 C 2.390457 1.462454 2.197443 1.498912 1.999213 1.498912 C 1.800982 1.498912 1.607968 1.462454 1.425388 1.384329 C 1.242807 1.311412 1.081093 1.202037 0.940245 1.061412 C 0.799397 0.920787 0.689848 0.759329 0.6116 0.571829 C 0.538567 0.389537 0.502051 0.196829 0.502051 -0.00108769 C 0.502051 -0.199004 0.538567 -0.391713 0.6116 -0.574004 C 0.689848 -0.756296 0.799397 -0.917754 0.940245 -1.058379 C 1.081093 -1.199004 1.242807 -1.308379 1.425388 -1.386504 C 1.607968 -1.459421 1.800982 -1.501088 1.999213 -1.501088 C 2.197443 -1.501088 2.390457 -1.459421 2.573037 -1.386504 C 2.755618 -1.308379 2.922549 -1.199004 3.05818 -1.058379 C 3.199028 -0.917754 3.308577 -0.756296 3.386825 -0.574004 C 3.459858 -0.391713 3.50159 -0.199004 3.50159 -0.00108769 Z M 3.50159 -0.00108769 " stroke="#ffffff" stroke-width="1" stroke-opacity="1" stroke-miterlimit="4"/><path stroke-linecap="butt" transform="matrix(0.748813, 0, 0, 0.75, 64.396175, 57.30941)" fill-opacity="1" fill="#ffffff" fill-rule="nonzero" stroke-linejoin="miter" d="M -0.497771 -0.00108769 C -0.497771 0.196829 -0.539503 0.389537 -0.612536 0.571829 C -0.690785 0.759329 -0.800333 0.920787 -0.941181 1.061412 C -1.082029 1.202037 -1.243743 1.311412 -1.426324 1.384329 C -1.608904 1.462454 -1.801918 1.498912 -2.000149 1.498912 C -2.198379 1.498912 -2.391393 1.462454 -2.573973 1.384329 C -2.756554 1.311412 -2.918268 1.202037 -3.059116 1.061412 C -3.199964 0.920787 -3.309513 0.759329 -3.387761 0.571829 C -3.460794 0.389537 -3.502526 0.196829 -3.502526 -0.00108769 C -3.502526 -0.199004 -3.460794 -0.391713 -3.387761 -0.574004 C -3.309513 -0.756296 -3.199964 -0.917754 -3.059116 -1.058379 C -2.918268 -1.199004 -2.756554 -1.308379 -2.573973 -1.386504 C -2.391393 -1.459421 -2.198379 -1.501088 -2.000149 -1.501088 C -1.801918 -1.501088 -1.608904 -1.459421 -1.426324 -1.386504 C -1.243743 -1.308379 -1.082029 -1.199004 -0.941181 -1.058379 C -0.800333 -0.917754 -0.690785 -0.756296 -0.612536 -0.574004 C -0.539503 -0.391713 -0.497771 -0.199004 -0.497771 -0.00108769 Z M -0.497771 -0.00108769 " stroke="#ffffff" stroke-width="1" stroke-opacity="1" stroke-miterlimit="4"/></svg>